<svg width="327" height="100" viewBox="0 0 327 100" fill="none" xmlns="http://www.w3.org/2000/svg">
<g clip-path="url(#clip0_1339_2300)">
<rect width="327" height="100" rx="16" fill="white"/>
<g clip-path="url(#clip1_1339_2300)">
<rect width="80" height="100" fill="#F2F6FF"/>
<g filter="url(#filter0_f_1339_2300)">
<path d="M299.25 -5.37075C227.818 148.89 58.0097 206.391 -23.4439 235.888C-104.897 265.384 -127.058 194.106 -135.178 171.682C-143.299 149.257 -117.405 -35.633 -35.9518 -65.1294C45.5017 -94.6258 313.98 -149.626 299.25 -5.37075Z" fill="url(#paint0_linear_1339_2300)"/>
</g>
<g filter="url(#filter1_i_1339_2300)">
<g filter="url(#filter2_bii_1339_2300)">
<path fill-rule="evenodd" clip-rule="evenodd" d="M53.8855 42.2583C53.7997 42.2532 53.7084 42.2512 53.6115 42.2522H49.7898C46.6598 42.2522 43.9823 44.7163 43.9823 47.928C43.9823 51.1398 46.6613 53.6039 49.7898 53.6039H53.6115C53.7084 53.6049 53.8002 53.6029 53.887 53.5978C54.5303 53.559 55.1376 53.2877 55.5956 52.8344C56.0537 52.381 56.3313 51.7766 56.3768 51.1337C56.3829 51.0429 56.3829 50.9446 56.3829 50.8537V45.0023C56.3829 44.9115 56.3829 44.8131 56.3768 44.7223C56.3313 44.0795 56.0537 43.4751 55.5956 43.0217C55.1376 42.5684 54.5288 42.297 53.8855 42.2583ZM49.4553 49.4416C50.2605 49.4416 50.9129 48.7635 50.9129 47.928C50.9129 47.0926 50.2605 46.4145 49.4553 46.4145C48.6486 46.4145 47.9962 47.0926 47.9962 47.928C47.9962 48.7635 48.6486 49.4416 49.4553 49.4416Z" fill="url(#paint1_linear_1339_2300)"/>
</g>
<g filter="url(#filter3_bi_1339_2300)">
<path fill-rule="evenodd" clip-rule="evenodd" d="M53.6118 55.8734C53.6642 55.8713 53.7162 55.8815 53.7638 55.9033C53.8115 55.9251 53.8533 55.9579 53.8858 55.9989C53.9184 56.0399 53.9409 56.088 53.9514 56.1393C53.9619 56.1906 53.9602 56.2436 53.9463 56.2941C53.6436 57.3718 53.1608 58.292 52.3874 59.0639C51.2537 60.1991 49.8173 60.7001 48.0435 60.9392C46.318 61.1708 44.1158 61.1708 41.3339 61.1708H38.1372C35.3553 61.1708 33.1516 61.1708 31.4277 60.9392C29.6538 60.7001 28.2174 60.1976 27.0837 59.0654C25.9516 57.9318 25.4491 56.4954 25.21 54.7215C24.9784 52.9961 24.9784 50.7939 24.9784 48.012V47.8424C24.9784 45.0605 24.9784 42.8568 25.21 41.1313C25.4491 39.3575 25.9516 37.9211 27.0837 36.7874C28.2174 35.6553 29.6538 35.1528 31.4277 34.9137C33.1531 34.6836 35.3553 34.6836 38.1372 34.6836H41.3339C44.1158 34.6836 46.3195 34.6836 48.0435 34.9152C49.8173 35.1543 51.2537 35.6568 52.3874 36.7889C53.1608 37.5639 53.6436 38.4826 53.9463 39.5603C53.9602 39.6108 53.9619 39.6638 53.9514 39.7151C53.9409 39.7664 53.9184 39.8145 53.8858 39.8555C53.8533 39.8965 53.8115 39.9293 53.7638 39.9511C53.7162 39.9729 53.6642 39.9831 53.6118 39.981H49.7916C45.4977 39.981 41.7138 43.3714 41.7138 47.9272C41.7138 52.483 45.4977 55.8734 49.7916 55.8734H53.6118ZM30.6542 40.7378C30.3532 40.7378 30.0644 40.8574 29.8515 41.0703C29.6387 41.2832 29.5191 41.5719 29.5191 41.873C29.5191 42.174 29.6387 42.4628 29.8515 42.6757C30.0644 42.8885 30.3532 43.0081 30.6542 43.0081H36.7084C37.0095 43.0081 37.2982 42.8885 37.5111 42.6757C37.724 42.4628 37.8436 42.174 37.8436 41.873C37.8436 41.5719 37.724 41.2832 37.5111 41.0703C37.2982 40.8574 37.0095 40.7378 36.7084 40.7378H30.6542Z" fill="url(#paint2_linear_1339_2300)"/>
</g>
</g>
<g filter="url(#filter4_bii_1339_2300)">
<path d="M35.9783 65.3953L41.258 70.674C41.6695 71.0855 41.6696 71.7527 41.258 72.1643C40.8465 72.5758 40.1793 72.5758 39.7678 72.1642L34.489 66.8846C32.811 68.2298 30.7237 68.9615 28.573 68.9584C23.3404 68.9584 19.0938 64.7117 19.0938 59.4792C19.0938 54.2467 23.3404 50 28.573 50C33.8055 50 38.0522 54.2467 38.0522 59.4792C38.0552 61.6299 37.3236 63.7172 35.9783 65.3953Z" fill="white" fill-opacity="0.4"/>
</g>
</g>
<path d="M111.68 32.38L108.384 43.5H106.32L103.984 35.084L101.504 43.5L99.456 43.516L96.304 32.38H98.24L100.544 41.436L103.04 32.38H105.088L107.408 41.388L109.728 32.38H111.68ZM112.096 39.052C112.096 38.1667 112.278 37.3827 112.64 36.7C113.014 36.0173 113.515 35.4893 114.144 35.116C114.784 34.732 115.488 34.54 116.256 34.54C116.95 34.54 117.552 34.6787 118.064 34.956C118.587 35.2227 119.003 35.5587 119.312 35.964V34.684H121.152V43.5H119.312V42.188C119.003 42.604 118.582 42.9507 118.048 43.228C117.515 43.5053 116.907 43.644 116.224 43.644C115.467 43.644 114.774 43.452 114.144 43.068C113.515 42.6733 113.014 42.1293 112.64 41.436C112.278 40.732 112.096 39.9373 112.096 39.052ZM119.312 39.084C119.312 38.476 119.184 37.948 118.928 37.5C118.683 37.052 118.358 36.7107 117.952 36.476C117.547 36.2413 117.11 36.124 116.64 36.124C116.171 36.124 115.734 36.2413 115.328 36.476C114.923 36.7 114.592 37.036 114.336 37.484C114.091 37.9213 113.968 38.444 113.968 39.052C113.968 39.66 114.091 40.1933 114.336 40.652C114.592 41.1107 114.923 41.4627 115.328 41.708C115.744 41.9427 116.182 42.06 116.64 42.06C117.11 42.06 117.547 41.9427 117.952 41.708C118.358 41.4733 118.683 41.132 118.928 40.684C119.184 40.2253 119.312 39.692 119.312 39.084ZM124.892 31.66V43.5H123.068V31.66H124.892ZM128.631 31.66V43.5H126.807V31.66H128.631ZM138.626 38.876C138.626 39.2067 138.604 39.5053 138.562 39.772H131.826C131.879 40.476 132.14 41.0413 132.61 41.468C133.079 41.8947 133.655 42.108 134.338 42.108C135.319 42.108 136.012 41.6973 136.418 40.876H138.386C138.119 41.6867 137.634 42.3533 136.93 42.876C136.236 43.388 135.372 43.644 134.338 43.644C133.495 43.644 132.738 43.4573 132.066 43.084C131.404 42.7 130.882 42.1667 130.498 41.484C130.124 40.7907 129.938 39.9907 129.938 39.084C129.938 38.1773 130.119 37.3827 130.482 36.7C130.855 36.0067 131.372 35.4733 132.034 35.1C132.706 34.7267 133.474 34.54 134.338 34.54C135.17 34.54 135.911 34.7213 136.562 35.084C137.212 35.4467 137.719 35.9587 138.082 36.62C138.444 37.2707 138.626 38.0227 138.626 38.876ZM136.722 38.3C136.711 37.628 136.471 37.0893 136.002 36.684C135.532 36.2787 134.951 36.076 134.258 36.076C133.628 36.076 133.09 36.2787 132.642 36.684C132.194 37.0787 131.927 37.6173 131.842 38.3H136.722ZM142.069 36.172V41.052C142.069 41.3827 142.143 41.6227 142.293 41.772C142.453 41.9107 142.719 41.98 143.093 41.98H144.213V43.5H142.773C141.951 43.5 141.322 43.308 140.885 42.924C140.447 42.54 140.229 41.916 140.229 41.052V36.172H139.189V34.684H140.229V32.492H142.069V34.684H144.213V36.172H142.069ZM155.794 41.228H151.138L150.338 43.5H148.434L152.418 32.364H154.53L158.514 43.5H156.594L155.794 41.228ZM155.282 39.74L153.474 34.572L151.65 39.74H155.282ZM167.75 34.684V43.5H165.926V42.46C165.638 42.8227 165.26 43.1107 164.79 43.324C164.332 43.5267 163.841 43.628 163.318 43.628C162.625 43.628 162.001 43.484 161.446 43.196C160.902 42.908 160.47 42.4813 160.15 41.916C159.841 41.3507 159.686 40.668 159.686 39.868V34.684H161.494V39.596C161.494 40.3853 161.692 40.9933 162.086 41.42C162.481 41.836 163.02 42.044 163.702 42.044C164.385 42.044 164.924 41.836 165.318 41.42C165.724 40.9933 165.926 40.3853 165.926 39.596V34.684H167.75ZM169.069 39.052C169.069 38.1667 169.25 37.3827 169.613 36.7C169.986 36.0173 170.488 35.4893 171.117 35.116C171.757 34.732 172.466 34.54 173.245 34.54C173.821 34.54 174.386 34.668 174.941 34.924C175.506 35.1693 175.954 35.5 176.285 35.916V31.66H178.125V43.5H176.285V42.172C175.986 42.5987 175.57 42.9507 175.037 43.228C174.514 43.5053 173.912 43.644 173.229 43.644C172.461 43.644 171.757 43.452 171.117 43.068C170.488 42.6733 169.986 42.1293 169.613 41.436C169.25 40.732 169.069 39.9373 169.069 39.052ZM176.285 39.084C176.285 38.476 176.157 37.948 175.901 37.5C175.656 37.052 175.33 36.7107 174.925 36.476C174.52 36.2413 174.082 36.124 173.613 36.124C173.144 36.124 172.706 36.2413 172.301 36.476C171.896 36.7 171.565 37.036 171.309 37.484C171.064 37.9213 170.941 38.444 170.941 39.052C170.941 39.66 171.064 40.1933 171.309 40.652C171.565 41.1107 171.896 41.4627 172.301 41.708C172.717 41.9427 173.154 42.06 173.613 42.06C174.082 42.06 174.52 41.9427 174.925 41.708C175.33 41.4733 175.656 41.132 175.901 40.684C176.157 40.2253 176.285 39.692 176.285 39.084ZM180.969 33.516C180.638 33.516 180.361 33.404 180.137 33.18C179.913 32.956 179.801 32.6787 179.801 32.348C179.801 32.0173 179.913 31.74 180.137 31.516C180.361 31.292 180.638 31.18 180.969 31.18C181.289 31.18 181.561 31.292 181.785 31.516C182.009 31.74 182.121 32.0173 182.121 32.348C182.121 32.6787 182.009 32.956 181.785 33.18C181.561 33.404 181.289 33.516 180.969 33.516ZM181.865 34.684V43.5H180.041V34.684H181.865ZM185.907 36.172V41.052C185.907 41.3827 185.982 41.6227 186.131 41.772C186.291 41.9107 186.558 41.98 186.931 41.98H188.051V43.5H186.611C185.79 43.5 185.161 43.308 184.723 42.924C184.286 42.54 184.067 41.916 184.067 41.052V36.172H183.027V34.684H184.067V32.492H185.907V34.684H188.051V36.172H185.907ZM193.076 43.644C192.244 43.644 191.492 43.4573 190.82 43.084C190.148 42.7 189.62 42.1667 189.236 41.484C188.852 40.7907 188.66 39.9907 188.66 39.084C188.66 38.188 188.858 37.3933 189.252 36.7C189.647 36.0067 190.186 35.4733 190.868 35.1C191.551 34.7267 192.314 34.54 193.156 34.54C193.999 34.54 194.762 34.7267 195.444 35.1C196.127 35.4733 196.666 36.0067 197.06 36.7C197.455 37.3933 197.652 38.188 197.652 39.084C197.652 39.98 197.45 40.7747 197.044 41.468C196.639 42.1613 196.084 42.7 195.38 43.084C194.687 43.4573 193.919 43.644 193.076 43.644ZM193.076 42.06C193.546 42.06 193.983 41.948 194.388 41.724C194.804 41.5 195.14 41.164 195.396 40.716C195.652 40.268 195.78 39.724 195.78 39.084C195.78 38.444 195.658 37.9053 195.412 37.468C195.167 37.02 194.842 36.684 194.436 36.46C194.031 36.236 193.594 36.124 193.124 36.124C192.655 36.124 192.218 36.236 191.812 36.46C191.418 36.684 191.103 37.02 190.868 37.468C190.634 37.9053 190.516 38.444 190.516 39.084C190.516 40.0333 190.756 40.7693 191.236 41.292C191.727 41.804 192.34 42.06 193.076 42.06ZM200.8 35.964C201.066 35.516 201.418 35.1693 201.856 34.924C202.304 34.668 202.832 34.54 203.44 34.54V36.428H202.976C202.261 36.428 201.717 36.6093 201.344 36.972C200.981 37.3347 200.8 37.964 200.8 38.86V43.5H198.976V34.684H200.8V35.964Z" fill="#394964"/>
<path d="M102.846 65.33H98.59L97.806 67.5H96.462L99.99 57.798H101.46L104.974 67.5H103.63L102.846 65.33ZM102.482 64.294L100.718 59.366L98.954 64.294H102.482ZM109.83 59.688C110.763 59.688 111.519 59.9727 112.098 60.542C112.676 61.102 112.966 61.914 112.966 62.978V67.5H111.706V63.16C111.706 62.3947 111.514 61.8113 111.132 61.41C110.749 60.9993 110.226 60.794 109.564 60.794C108.892 60.794 108.355 61.004 107.954 61.424C107.562 61.844 107.366 62.4553 107.366 63.258V67.5H106.092V59.828H107.366V60.92C107.618 60.528 107.958 60.2247 108.388 60.01C108.826 59.7953 109.307 59.688 109.83 59.688ZM114.151 63.636C114.151 62.852 114.309 62.166 114.627 61.578C114.944 60.9807 115.378 60.5187 115.929 60.192C116.489 59.8653 117.109 59.702 117.791 59.702C118.463 59.702 119.046 59.8467 119.541 60.136C120.035 60.4253 120.404 60.7893 120.647 61.228V59.828H121.935V67.5H120.647V66.072C120.395 66.52 120.017 66.8933 119.513 67.192C119.018 67.4813 118.439 67.626 117.777 67.626C117.095 67.626 116.479 67.458 115.929 67.122C115.378 66.786 114.944 66.3147 114.627 65.708C114.309 65.1013 114.151 64.4107 114.151 63.636ZM120.647 63.65C120.647 63.0713 120.53 62.5673 120.297 62.138C120.063 61.7087 119.746 61.382 119.345 61.158C118.953 60.9247 118.519 60.808 118.043 60.808C117.567 60.808 117.133 60.92 116.741 61.144C116.349 61.368 116.036 61.6947 115.803 62.124C115.569 62.5533 115.453 63.0573 115.453 63.636C115.453 64.224 115.569 64.7373 115.803 65.176C116.036 65.6053 116.349 65.9367 116.741 66.17C117.133 66.394 117.567 66.506 118.043 66.506C118.519 66.506 118.953 66.394 119.345 66.17C119.746 65.9367 120.063 65.6053 120.297 65.176C120.53 64.7373 120.647 64.2287 120.647 63.65ZM124.942 57.14V67.5H123.668V57.14H124.942ZM133.301 59.828L128.681 71.112H127.365L128.877 67.416L125.783 59.828H127.197L129.605 66.044L131.985 59.828H133.301ZM135.114 66.45H138.88V67.5H133.658V66.45L137.382 60.864H133.686V59.828H138.852V60.864L135.114 66.45ZM147.113 63.37C147.113 63.6127 147.099 63.8693 147.071 64.14H140.939C140.985 64.896 141.242 65.4887 141.709 65.918C142.185 66.338 142.759 66.548 143.431 66.548C143.981 66.548 144.439 66.422 144.803 66.17C145.176 65.9087 145.437 65.5633 145.587 65.134H146.959C146.753 65.8713 146.343 66.4733 145.727 66.94C145.111 67.3973 144.345 67.626 143.431 67.626C142.703 67.626 142.049 67.4627 141.471 67.136C140.901 66.8093 140.453 66.3473 140.127 65.75C139.8 65.1433 139.637 64.4433 139.637 63.65C139.637 62.8567 139.795 62.1613 140.113 61.564C140.43 60.9667 140.873 60.5093 141.443 60.192C142.021 59.8653 142.684 59.702 143.431 59.702C144.159 59.702 144.803 59.8607 145.363 60.178C145.923 60.4953 146.352 60.934 146.651 61.494C146.959 62.0447 147.113 62.67 147.113 63.37ZM145.797 63.104C145.797 62.6187 145.689 62.2033 145.475 61.858C145.26 61.5033 144.966 61.2373 144.593 61.06C144.229 60.8733 143.823 60.78 143.375 60.78C142.731 60.78 142.18 60.9853 141.723 61.396C141.275 61.8067 141.018 62.376 140.953 63.104H145.797ZM161.907 59.828L159.513 67.5H158.197L156.349 61.41L154.501 67.5H153.185L150.777 59.828H152.079L153.843 66.268L155.747 59.828H157.049L158.911 66.282L160.647 59.828H161.907ZM162.275 63.636C162.275 62.852 162.434 62.166 162.751 61.578C163.068 60.9807 163.502 60.5187 164.053 60.192C164.613 59.8653 165.234 59.702 165.915 59.702C166.587 59.702 167.17 59.8467 167.665 60.136C168.16 60.4253 168.528 60.7893 168.771 61.228V59.828H170.059V67.5H168.771V66.072C168.519 66.52 168.141 66.8933 167.637 67.192C167.142 67.4813 166.564 67.626 165.901 67.626C165.22 67.626 164.604 67.458 164.053 67.122C163.502 66.786 163.068 66.3147 162.751 65.708C162.434 65.1013 162.275 64.4107 162.275 63.636ZM168.771 63.65C168.771 63.0713 168.654 62.5673 168.421 62.138C168.188 61.7087 167.87 61.382 167.469 61.158C167.077 60.9247 166.643 60.808 166.167 60.808C165.691 60.808 165.257 60.92 164.865 61.144C164.473 61.368 164.16 61.6947 163.927 62.124C163.694 62.5533 163.577 63.0573 163.577 63.636C163.577 64.224 163.694 64.7373 163.927 65.176C164.16 65.6053 164.473 65.9367 164.865 66.17C165.257 66.394 165.691 66.506 166.167 66.506C166.643 66.506 167.077 66.394 167.469 66.17C167.87 65.9367 168.188 65.6053 168.421 65.176C168.654 64.7373 168.771 64.2287 168.771 63.65ZM173.066 57.14V67.5H171.792V57.14H173.066ZM176.091 57.14V67.5H174.817V57.14H176.091ZM184.843 63.37C184.843 63.6127 184.829 63.8693 184.801 64.14H178.669C178.715 64.896 178.972 65.4887 179.439 65.918C179.915 66.338 180.489 66.548 181.161 66.548C181.711 66.548 182.169 66.422 182.533 66.17C182.906 65.9087 183.167 65.5633 183.317 65.134H184.689C184.483 65.8713 184.073 66.4733 183.457 66.94C182.841 67.3973 182.075 67.626 181.161 67.626C180.433 67.626 179.779 67.4627 179.201 67.136C178.631 66.8093 178.183 66.3473 177.857 65.75C177.53 65.1433 177.367 64.4433 177.367 63.65C177.367 62.8567 177.525 62.1613 177.843 61.564C178.16 60.9667 178.603 60.5093 179.173 60.192C179.751 59.8653 180.414 59.702 181.161 59.702C181.889 59.702 182.533 59.8607 183.093 60.178C183.653 60.4953 184.082 60.934 184.381 61.494C184.689 62.0447 184.843 62.67 184.843 63.37ZM183.527 63.104C183.527 62.6187 183.419 62.2033 183.205 61.858C182.99 61.5033 182.696 61.2373 182.323 61.06C181.959 60.8733 181.553 60.78 181.105 60.78C180.461 60.78 179.91 60.9853 179.453 61.396C179.005 61.8067 178.748 62.376 178.683 63.104H183.527ZM187.658 60.878V65.4C187.658 65.7733 187.738 66.0393 187.896 66.198C188.055 66.3473 188.33 66.422 188.722 66.422H189.66V67.5H188.512C187.803 67.5 187.271 67.3367 186.916 67.01C186.562 66.6833 186.384 66.1467 186.384 65.4V60.878H185.39V59.828H186.384V57.896H187.658V59.828H189.66V60.878H187.658ZM195.37 61.256C195.632 60.7987 196.014 60.4253 196.518 60.136C197.022 59.8467 197.596 59.702 198.24 59.702C198.931 59.702 199.552 59.8653 200.102 60.192C200.653 60.5187 201.087 60.9807 201.404 61.578C201.722 62.166 201.88 62.852 201.88 63.636C201.88 64.4107 201.722 65.1013 201.404 65.708C201.087 66.3147 200.648 66.786 200.088 67.122C199.538 67.458 198.922 67.626 198.24 67.626C197.578 67.626 196.994 67.4813 196.49 67.192C195.996 66.9027 195.622 66.534 195.37 66.086V67.5H194.096V57.14H195.37V61.256ZM200.578 63.636C200.578 63.0573 200.462 62.5533 200.228 62.124C199.995 61.6947 199.678 61.368 199.276 61.144C198.884 60.92 198.45 60.808 197.974 60.808C197.508 60.808 197.074 60.9247 196.672 61.158C196.28 61.382 195.963 61.7133 195.72 62.152C195.487 62.5813 195.37 63.0807 195.37 63.65C195.37 64.2287 195.487 64.7373 195.72 65.176C195.963 65.6053 196.28 65.9367 196.672 66.17C197.074 66.394 197.508 66.506 197.974 66.506C198.45 66.506 198.884 66.394 199.276 66.17C199.678 65.9367 199.995 65.6053 200.228 65.176C200.462 64.7373 200.578 64.224 200.578 63.636ZM210.137 63.37C210.137 63.6127 210.123 63.8693 210.095 64.14H203.963C204.01 64.896 204.267 65.4887 204.733 65.918C205.209 66.338 205.783 66.548 206.455 66.548C207.006 66.548 207.463 66.422 207.827 66.17C208.201 65.9087 208.462 65.5633 208.611 65.134H209.983C209.778 65.8713 209.367 66.4733 208.751 66.94C208.135 67.3973 207.37 67.626 206.455 67.626C205.727 67.626 205.074 67.4627 204.495 67.136C203.926 66.8093 203.478 66.3473 203.151 65.75C202.825 65.1433 202.661 64.4433 202.661 63.65C202.661 62.8567 202.82 62.1613 203.137 61.564C203.455 60.9667 203.898 60.5093 204.467 60.192C205.046 59.8653 205.709 59.702 206.455 59.702C207.183 59.702 207.827 59.8607 208.387 60.178C208.947 60.4953 209.377 60.934 209.675 61.494C209.983 62.0447 210.137 62.67 210.137 63.37ZM208.821 63.104C208.821 62.6187 208.714 62.2033 208.499 61.858C208.285 61.5033 207.991 61.2373 207.617 61.06C207.253 60.8733 206.847 60.78 206.399 60.78C205.755 60.78 205.205 60.9853 204.747 61.396C204.299 61.8067 204.043 62.376 203.977 63.104H208.821ZM215.207 59.688C215.786 59.688 216.308 59.814 216.775 60.066C217.242 60.3087 217.606 60.6773 217.867 61.172C218.138 61.6667 218.273 62.2687 218.273 62.978V67.5H217.013V63.16C217.013 62.3947 216.822 61.8113 216.439 61.41C216.056 60.9993 215.534 60.794 214.871 60.794C214.199 60.794 213.662 61.004 213.261 61.424C212.869 61.844 212.673 62.4553 212.673 63.258V67.5H211.399V57.14H212.673V60.92C212.925 60.528 213.27 60.2247 213.709 60.01C214.157 59.7953 214.656 59.688 215.207 59.688ZM219.458 63.636C219.458 62.852 219.617 62.166 219.934 61.578C220.251 60.9807 220.685 60.5187 221.236 60.192C221.796 59.8653 222.417 59.702 223.098 59.702C223.77 59.702 224.353 59.8467 224.848 60.136C225.343 60.4253 225.711 60.7893 225.954 61.228V59.828H227.242V67.5H225.954V66.072C225.702 66.52 225.324 66.8933 224.82 67.192C224.325 67.4813 223.747 67.626 223.084 67.626C222.403 67.626 221.787 67.458 221.236 67.122C220.685 66.786 220.251 66.3147 219.934 65.708C219.617 65.1013 219.458 64.4107 219.458 63.636ZM225.954 63.65C225.954 63.0713 225.837 62.5673 225.604 62.138C225.371 61.7087 225.053 61.382 224.652 61.158C224.26 60.9247 223.826 60.808 223.35 60.808C222.874 60.808 222.44 60.92 222.048 61.144C221.656 61.368 221.343 61.6947 221.11 62.124C220.877 62.5533 220.76 63.0573 220.76 63.636C220.76 64.224 220.877 64.7373 221.11 65.176C221.343 65.6053 221.656 65.9367 222.048 66.17C222.44 66.394 222.874 66.506 223.35 66.506C223.826 66.506 224.26 66.394 224.652 66.17C225.053 65.9367 225.371 65.6053 225.604 65.176C225.837 64.7373 225.954 64.2287 225.954 63.65ZM231.831 66.324L234.211 59.828H235.569L232.559 67.5H231.075L228.065 59.828H229.437L231.831 66.324ZM237.061 58.582C236.818 58.582 236.613 58.498 236.445 58.33C236.277 58.162 236.193 57.9567 236.193 57.714C236.193 57.4713 236.277 57.266 236.445 57.098C236.613 56.93 236.818 56.846 237.061 56.846C237.294 56.846 237.49 56.93 237.649 57.098C237.817 57.266 237.901 57.4713 237.901 57.714C237.901 57.9567 237.817 58.162 237.649 58.33C237.49 58.498 237.294 58.582 237.061 58.582ZM237.677 59.828V67.5H236.403V59.828H237.677ZM242.774 67.626C242.055 67.626 241.402 67.4627 240.814 67.136C240.235 66.8093 239.778 66.3473 239.442 65.75C239.115 65.1433 238.952 64.4433 238.952 63.65C238.952 62.866 239.12 62.1753 239.456 61.578C239.801 60.9713 240.268 60.5093 240.856 60.192C241.444 59.8653 242.102 59.702 242.83 59.702C243.558 59.702 244.216 59.8653 244.804 60.192C245.392 60.5093 245.854 60.9667 246.19 61.564C246.535 62.1613 246.708 62.8567 246.708 63.65C246.708 64.4433 246.531 65.1433 246.176 65.75C245.831 66.3473 245.359 66.8093 244.762 67.136C244.165 67.4627 243.502 67.626 242.774 67.626ZM242.774 66.506C243.231 66.506 243.661 66.3987 244.062 66.184C244.463 65.9693 244.785 65.6473 245.028 65.218C245.28 64.7887 245.406 64.266 245.406 63.65C245.406 63.034 245.285 62.5113 245.042 62.082C244.799 61.6527 244.482 61.3353 244.09 61.13C243.698 60.9153 243.273 60.808 242.816 60.808C242.349 60.808 241.92 60.9153 241.528 61.13C241.145 61.3353 240.837 61.6527 240.604 62.082C240.371 62.5113 240.254 63.034 240.254 63.65C240.254 64.2753 240.366 64.8027 240.59 65.232C240.823 65.6613 241.131 65.9833 241.514 66.198C241.897 66.4033 242.317 66.506 242.774 66.506ZM254.767 59.828V67.5H253.493V66.366C253.25 66.758 252.91 67.066 252.471 67.29C252.042 67.5047 251.566 67.612 251.043 67.612C250.446 67.612 249.909 67.4907 249.433 67.248C248.957 66.996 248.579 66.6227 248.299 66.128C248.028 65.6333 247.893 65.0313 247.893 64.322V59.828H249.153V64.154C249.153 64.91 249.344 65.4933 249.727 65.904C250.11 66.3053 250.632 66.506 251.295 66.506C251.976 66.506 252.513 66.296 252.905 65.876C253.297 65.456 253.493 64.8447 253.493 64.042V59.828H254.767ZM257.772 61.074C257.996 60.6353 258.313 60.2947 258.724 60.052C259.144 59.8093 259.653 59.688 260.25 59.688V61.004H259.914C258.486 61.004 257.772 61.7787 257.772 63.328V67.5H256.498V59.828H257.772V61.074Z" fill="#4E6C8E"/>
</g>
<defs>
<filter id="filter0_f_1339_2300" x="-209.78" y="-173.601" width="582.796" height="489.714" filterUnits="userSpaceOnUse" color-interpolation-filters="sRGB">
<feFlood flood-opacity="0" result="BackgroundImageFix"/>
<feBlend mode="normal" in="SourceGraphic" in2="BackgroundImageFix" result="shape"/>
<feGaussianBlur stdDeviation="36.5911" result="effect1_foregroundBlur_1339_2300"/>
</filter>
<filter id="filter1_i_1339_2300" x="24.9784" y="34.6836" width="31.4044" height="26.4872" filterUnits="userSpaceOnUse" color-interpolation-filters="sRGB">
<feFlood flood-opacity="0" result="BackgroundImageFix"/>
<feBlend mode="normal" in="SourceGraphic" in2="BackgroundImageFix" result="shape"/>
<feColorMatrix in="SourceAlpha" type="matrix" values="0 0 0 0 0 0 0 0 0 0 0 0 0 0 0 0 0 0 127 0" result="hardAlpha"/>
<feOffset/>
<feGaussianBlur stdDeviation="2.59771"/>
<feComposite in2="hardAlpha" operator="arithmetic" k2="-1" k3="1"/>
<feColorMatrix type="matrix" values="0 0 0 0 1 0 0 0 0 1 0 0 0 0 1 0 0 0 0.8 0"/>
<feBlend mode="normal" in2="shape" result="effect1_innerShadow_1339_2300"/>
</filter>
<filter id="filter2_bii_1339_2300" x="41.0573" y="39.327" width="18.2505" height="17.2022" filterUnits="userSpaceOnUse" color-interpolation-filters="sRGB">
<feFlood flood-opacity="0" result="BackgroundImageFix"/>
<feGaussianBlur in="BackgroundImageFix" stdDeviation="1.4625"/>
<feComposite in2="SourceAlpha" operator="in" result="effect1_backgroundBlur_1339_2300"/>
<feBlend mode="normal" in="SourceGraphic" in2="effect1_backgroundBlur_1339_2300" result="shape"/>
<feColorMatrix in="SourceAlpha" type="matrix" values="0 0 0 0 0 0 0 0 0 0 0 0 0 0 0 0 0 0 127 0" result="hardAlpha"/>
<feOffset/>
<feGaussianBlur stdDeviation="1.4625"/>
<feComposite in2="hardAlpha" operator="arithmetic" k2="-1" k3="1"/>
<feColorMatrix type="matrix" values="0 0 0 0 1 0 0 0 0 1 0 0 0 0 1 0 0 0 1 0"/>
<feBlend mode="normal" in2="shape" result="effect2_innerShadow_1339_2300"/>
<feColorMatrix in="SourceAlpha" type="matrix" values="0 0 0 0 0 0 0 0 0 0 0 0 0 0 0 0 0 0 127 0" result="hardAlpha"/>
<feOffset dy="2.925"/>
<feGaussianBlur stdDeviation="2.925"/>
<feComposite in2="hardAlpha" operator="arithmetic" k2="-1" k3="1"/>
<feColorMatrix type="matrix" values="0 0 0 0 1 0 0 0 0 1 0 0 0 0 1 0 0 0 1 0"/>
<feBlend mode="normal" in2="effect2_innerShadow_1339_2300" result="effect3_innerShadow_1339_2300"/>
</filter>
<filter id="filter3_bi_1339_2300" x="22.0534" y="31.7586" width="34.8297" height="32.3372" filterUnits="userSpaceOnUse" color-interpolation-filters="sRGB">
<feFlood flood-opacity="0" result="BackgroundImageFix"/>
<feGaussianBlur in="BackgroundImageFix" stdDeviation="1.4625"/>
<feComposite in2="SourceAlpha" operator="in" result="effect1_backgroundBlur_1339_2300"/>
<feBlend mode="normal" in="SourceGraphic" in2="effect1_backgroundBlur_1339_2300" result="shape"/>
<feColorMatrix in="SourceAlpha" type="matrix" values="0 0 0 0 0 0 0 0 0 0 0 0 0 0 0 0 0 0 127 0" result="hardAlpha"/>
<feOffset dy="-0.6"/>
<feGaussianBlur stdDeviation="2.49"/>
<feComposite in2="hardAlpha" operator="arithmetic" k2="-1" k3="1"/>
<feColorMatrix type="matrix" values="0 0 0 0 1 0 0 0 0 1 0 0 0 0 1 0 0 0 1 0"/>
<feBlend mode="normal" in2="shape" result="effect2_innerShadow_1339_2300"/>
</filter>
<filter id="filter4_bii_1339_2300" x="17.1284" y="48.0346" width="26.4036" height="26.4036" filterUnits="userSpaceOnUse" color-interpolation-filters="sRGB">
<feFlood flood-opacity="0" result="BackgroundImageFix"/>
<feGaussianBlur in="BackgroundImageFix" stdDeviation="0.982677"/>
<feComposite in2="SourceAlpha" operator="in" result="effect1_backgroundBlur_1339_2300"/>
<feBlend mode="normal" in="SourceGraphic" in2="effect1_backgroundBlur_1339_2300" result="shape"/>
<feColorMatrix in="SourceAlpha" type="matrix" values="0 0 0 0 0 0 0 0 0 0 0 0 0 0 0 0 0 0 127 0" result="hardAlpha"/>
<feOffset/>
<feGaussianBlur stdDeviation="0.982677"/>
<feComposite in2="hardAlpha" operator="arithmetic" k2="-1" k3="1"/>
<feColorMatrix type="matrix" values="0 0 0 0 1 0 0 0 0 1 0 0 0 0 1 0 0 0 1 0"/>
<feBlend mode="normal" in2="shape" result="effect2_innerShadow_1339_2300"/>
<feColorMatrix in="SourceAlpha" type="matrix" values="0 0 0 0 0 0 0 0 0 0 0 0 0 0 0 0 0 0 127 0" result="hardAlpha"/>
<feOffset dy="1.96535"/>
<feGaussianBlur stdDeviation="1.96535"/>
<feComposite in2="hardAlpha" operator="arithmetic" k2="-1" k3="1"/>
<feColorMatrix type="matrix" values="0 0 0 0 1 0 0 0 0 1 0 0 0 0 1 0 0 0 1 0"/>
<feBlend mode="normal" in2="effect2_innerShadow_1339_2300" result="effect3_innerShadow_1339_2300"/>
</filter>
<linearGradient id="paint0_linear_1339_2300" x1="-112.508" y1="67.2661" x2="-43.5862" y2="-41.8983" gradientUnits="userSpaceOnUse">
<stop offset="0.0417483" stop-color="#F3BA2F"/>
<stop offset="1" stop-color="white"/>
</linearGradient>
<linearGradient id="paint1_linear_1339_2300" x1="53.8848" y1="45.3153" x2="42.3568" y2="54.1009" gradientUnits="userSpaceOnUse">
<stop stop-color="#FFB809"/>
<stop offset="1" stop-color="#FA2FC4"/>
</linearGradient>
<linearGradient id="paint2_linear_1339_2300" x1="29.4271" y1="50.4509" x2="55.6128" y2="36.9677" gradientUnits="userSpaceOnUse">
<stop stop-color="#F3BA2F"/>
<stop offset="1" stop-color="#FF36BF"/>
</linearGradient>
<clipPath id="clip0_1339_2300">
<rect width="327" height="100" rx="16" fill="white"/>
</clipPath>
<clipPath id="clip1_1339_2300">
<rect width="80" height="100" fill="white"/>
</clipPath>
</defs>
</svg>
