<svg width="327" height="100" viewBox="0 0 327 100" fill="none" xmlns="http://www.w3.org/2000/svg">
<g clip-path="url(#clip0_1339_2301)">
<rect width="327" height="100" rx="16" fill="white"/>
<g clip-path="url(#clip1_1339_2301)">
<rect width="80" height="100" fill="#F2F6FF"/>
<g filter="url(#filter0_f_1339_2301)">
<path d="M299.25 -5.37075C227.818 148.89 58.0097 206.391 -23.4439 235.888C-104.897 265.384 -127.058 194.106 -135.178 171.682C-143.299 149.257 -117.405 -35.633 -35.9518 -65.1294C45.5017 -94.6258 313.98 -149.626 299.25 -5.37075Z" fill="url(#paint0_linear_1339_2301)"/>
</g>
<g filter="url(#filter1_bii_1339_2301)">
<path fill-rule="evenodd" clip-rule="evenodd" d="M47.6805 27.4933C46.8026 27.1663 45.8363 27.1663 44.9584 27.4933L34.3202 31.455C32.7936 32.0235 31.7812 33.4809 31.7812 35.1098V43.3914C31.7812 52.1615 37.5195 60.3634 45.385 62.819C45.9932 63.0089 46.6457 63.0089 47.2539 62.819C55.1194 60.3634 60.8577 52.1615 60.8577 43.3914V35.1098C60.8577 33.4809 59.8453 32.0235 58.3188 31.455L47.6805 27.4933ZM46.3201 35.2734C47.0416 35.2734 47.6265 35.8583 47.6265 36.5798V48.2064C47.6265 48.9279 47.0416 49.5128 46.3201 49.5128C45.5986 49.5128 45.0137 48.9279 45.0137 48.2064V36.5798C45.0137 35.8583 45.5986 35.2734 46.3201 35.2734ZM46.32 56.3626C47.282 56.3626 48.0619 55.5828 48.0619 54.6208C48.0619 53.6588 47.282 52.8789 46.32 52.8789C45.358 52.8789 44.5781 53.6588 44.5781 54.6208C44.5781 55.5828 45.358 56.3626 46.32 56.3626Z" fill="url(#paint1_linear_1339_2301)"/>
</g>
<g filter="url(#filter2_bii_1339_2301)">
<path d="M31.0855 48.8555C34.2535 48.8555 37.2917 50.1139 39.5318 52.354C41.7719 54.5941 43.0304 57.6323 43.0304 60.8003C43.0303 61.1253 42.911 61.4391 42.695 61.682C42.479 61.9249 42.1813 62.0801 41.8585 62.1182L41.7032 62.1275H32.4127V68.7634C32.4131 69.1017 32.5426 69.4271 32.7748 69.6731C33.0071 69.919 33.3244 70.0671 33.6621 70.0869C33.9998 70.1067 34.3324 69.9968 34.5918 69.7797C34.8512 69.5626 35.0179 69.2546 35.0578 68.9187L35.0671 68.7634C35.0671 68.4114 35.207 68.0739 35.4559 67.825C35.7048 67.5761 36.0423 67.4362 36.3943 67.4362C36.7463 67.4362 37.0839 67.5761 37.3328 67.825C37.5817 68.0739 37.7215 68.4114 37.7215 68.7634C37.7225 69.7999 37.3194 70.7958 36.5977 71.5397C35.876 72.2836 34.8927 72.7167 33.8568 72.7472C32.8208 72.7776 31.8138 72.4028 31.0497 71.7026C30.2856 71.0023 29.8247 70.0317 29.7649 68.997L29.7583 68.7634V62.1275H20.4678C20.1428 62.1274 19.829 62.0081 19.5861 61.792C19.3431 61.576 19.1879 61.2784 19.1499 60.9555L19.1406 60.8003C19.1406 57.6323 20.3991 54.5941 22.6392 52.354C24.8793 50.1139 27.9175 48.8555 31.0855 48.8555Z" fill="white" fill-opacity="0.4"/>
</g>
</g>
<path d="M103.744 32.38V33.868H99.024V37.148H102.704V38.636H99.024V43.5H97.2V32.38H103.744ZM106.778 35.964C107.045 35.516 107.397 35.1693 107.834 34.924C108.282 34.668 108.81 34.54 109.418 34.54V36.428H108.954C108.24 36.428 107.696 36.6093 107.322 36.972C106.96 37.3347 106.778 37.964 106.778 38.86V43.5H104.954V34.684H106.778V35.964ZM110.007 39.052C110.007 38.1667 110.188 37.3827 110.551 36.7C110.924 36.0173 111.426 35.4893 112.055 35.116C112.695 34.732 113.399 34.54 114.167 34.54C114.86 34.54 115.463 34.6787 115.975 34.956C116.498 35.2227 116.914 35.5587 117.223 35.964V34.684H119.063V43.5H117.223V42.188C116.914 42.604 116.492 42.9507 115.959 43.228C115.426 43.5053 114.818 43.644 114.135 43.644C113.378 43.644 112.684 43.452 112.055 43.068C111.426 42.6733 110.924 42.1293 110.551 41.436C110.188 40.732 110.007 39.9373 110.007 39.052ZM117.223 39.084C117.223 38.476 117.095 37.948 116.839 37.5C116.594 37.052 116.268 36.7107 115.863 36.476C115.458 36.2413 115.02 36.124 114.551 36.124C114.082 36.124 113.644 36.2413 113.239 36.476C112.834 36.7 112.503 37.036 112.247 37.484C112.002 37.9213 111.879 38.444 111.879 39.052C111.879 39.66 112.002 40.1933 112.247 40.652C112.503 41.1107 112.834 41.4627 113.239 41.708C113.655 41.9427 114.092 42.06 114.551 42.06C115.02 42.06 115.458 41.9427 115.863 41.708C116.268 41.4733 116.594 41.132 116.839 40.684C117.095 40.2253 117.223 39.692 117.223 39.084ZM128.963 34.684V43.5H127.139V42.46C126.851 42.8227 126.472 43.1107 126.003 43.324C125.544 43.5267 125.053 43.628 124.531 43.628C123.837 43.628 123.213 43.484 122.659 43.196C122.115 42.908 121.683 42.4813 121.363 41.916C121.053 41.3507 120.899 40.668 120.899 39.868V34.684H122.707V39.596C122.707 40.3853 122.904 40.9933 123.299 41.42C123.693 41.836 124.232 42.044 124.915 42.044C125.597 42.044 126.136 41.836 126.531 41.42C126.936 40.9933 127.139 40.3853 127.139 39.596V34.684H128.963ZM130.281 39.052C130.281 38.1667 130.463 37.3827 130.825 36.7C131.199 36.0173 131.7 35.4893 132.329 35.116C132.969 34.732 133.679 34.54 134.457 34.54C135.033 34.54 135.599 34.668 136.153 34.924C136.719 35.1693 137.167 35.5 137.497 35.916V31.66H139.337V43.5H137.497V42.172C137.199 42.5987 136.783 42.9507 136.249 43.228C135.727 43.5053 135.124 43.644 134.441 43.644C133.673 43.644 132.969 43.452 132.329 43.068C131.7 42.6733 131.199 42.1293 130.825 41.436C130.463 40.732 130.281 39.9373 130.281 39.052ZM137.497 39.084C137.497 38.476 137.369 37.948 137.113 37.5C136.868 37.052 136.543 36.7107 136.137 36.476C135.732 36.2413 135.295 36.124 134.825 36.124C134.356 36.124 133.919 36.2413 133.513 36.476C133.108 36.7 132.777 37.036 132.521 37.484C132.276 37.9213 132.153 38.444 132.153 39.052C132.153 39.66 132.276 40.1933 132.521 40.652C132.777 41.1107 133.108 41.4627 133.513 41.708C133.929 41.9427 134.367 42.06 134.825 42.06C135.295 42.06 135.732 41.9427 136.137 41.708C136.543 41.4733 136.868 41.132 137.113 40.684C137.369 40.2253 137.497 39.692 137.497 39.084ZM148.561 32.38C149.745 32.38 150.78 32.6093 151.665 33.068C152.561 33.516 153.249 34.1667 153.729 35.02C154.22 35.8627 154.465 36.8493 154.465 37.98C154.465 39.1107 154.22 40.092 153.729 40.924C153.249 41.756 152.561 42.396 151.665 42.844C150.78 43.2813 149.745 43.5 148.561 43.5H144.929V32.38H148.561ZM148.561 42.012C149.863 42.012 150.86 41.66 151.553 40.956C152.247 40.252 152.593 39.26 152.593 37.98C152.593 36.6893 152.247 35.6813 151.553 34.956C150.86 34.2307 149.863 33.868 148.561 33.868H146.753V42.012H148.561ZM163.873 38.876C163.873 39.2067 163.852 39.5053 163.809 39.772H157.073C157.126 40.476 157.388 41.0413 157.857 41.468C158.326 41.8947 158.902 42.108 159.585 42.108C160.566 42.108 161.26 41.6973 161.665 40.876H163.633C163.366 41.6867 162.881 42.3533 162.177 42.876C161.484 43.388 160.62 43.644 159.585 43.644C158.742 43.644 157.985 43.4573 157.313 43.084C156.652 42.7 156.129 42.1667 155.745 41.484C155.372 40.7907 155.185 39.9907 155.185 39.084C155.185 38.1773 155.366 37.3827 155.729 36.7C156.102 36.0067 156.62 35.4733 157.281 35.1C157.953 34.7267 158.721 34.54 159.585 34.54C160.417 34.54 161.158 34.7213 161.809 35.084C162.46 35.4467 162.966 35.9587 163.329 36.62C163.692 37.2707 163.873 38.0227 163.873 38.876ZM161.969 38.3C161.958 37.628 161.718 37.0893 161.249 36.684C160.78 36.2787 160.198 36.076 159.505 36.076C158.876 36.076 158.337 36.2787 157.889 36.684C157.441 37.0787 157.174 37.6173 157.089 38.3H161.969ZM167.316 36.172V41.052C167.316 41.3827 167.391 41.6227 167.54 41.772C167.7 41.9107 167.967 41.98 168.34 41.98H169.46V43.5H168.02C167.199 43.5 166.569 43.308 166.132 42.924C165.695 42.54 165.476 41.916 165.476 41.052V36.172H164.436V34.684H165.476V32.492H167.316V34.684H169.46V36.172H167.316ZM178.741 38.876C178.741 39.2067 178.72 39.5053 178.677 39.772H171.941C171.995 40.476 172.256 41.0413 172.725 41.468C173.195 41.8947 173.771 42.108 174.453 42.108C175.435 42.108 176.128 41.6973 176.533 40.876H178.501C178.235 41.6867 177.749 42.3533 177.045 42.876C176.352 43.388 175.488 43.644 174.453 43.644C173.611 43.644 172.853 43.4573 172.181 43.084C171.52 42.7 170.997 42.1667 170.613 41.484C170.24 40.7907 170.053 39.9907 170.053 39.084C170.053 38.1773 170.235 37.3827 170.597 36.7C170.971 36.0067 171.488 35.4733 172.149 35.1C172.821 34.7267 173.589 34.54 174.453 34.54C175.285 34.54 176.027 34.7213 176.677 35.084C177.328 35.4467 177.835 35.9587 178.197 36.62C178.56 37.2707 178.741 38.0227 178.741 38.876ZM176.837 38.3C176.827 37.628 176.587 37.0893 176.117 36.684C175.648 36.2787 175.067 36.076 174.373 36.076C173.744 36.076 173.205 36.2787 172.757 36.684C172.309 37.0787 172.043 37.6173 171.957 38.3H176.837ZM179.448 39.084C179.448 38.1773 179.63 37.3827 179.992 36.7C180.366 36.0067 180.878 35.4733 181.528 35.1C182.179 34.7267 182.926 34.54 183.768 34.54C184.835 34.54 185.715 34.796 186.408 35.308C187.112 35.8093 187.587 36.5293 187.832 37.468H185.864C185.704 37.0307 185.448 36.6893 185.096 36.444C184.744 36.1987 184.302 36.076 183.768 36.076C183.022 36.076 182.424 36.3427 181.976 36.876C181.539 37.3987 181.32 38.1347 181.32 39.084C181.32 40.0333 181.539 40.7747 181.976 41.308C182.424 41.8413 183.022 42.108 183.768 42.108C184.824 42.108 185.523 41.644 185.864 40.716H187.832C187.576 41.612 187.096 42.3267 186.392 42.86C185.688 43.3827 184.814 43.644 183.768 43.644C182.926 43.644 182.179 43.4573 181.528 43.084C180.878 42.7 180.366 42.1667 179.992 41.484C179.63 40.7907 179.448 39.9907 179.448 39.084ZM191.298 36.172V41.052C191.298 41.3827 191.373 41.6227 191.522 41.772C191.682 41.9107 191.949 41.98 192.322 41.98H193.442V43.5H192.002C191.181 43.5 190.551 43.308 190.114 42.924C189.677 42.54 189.458 41.916 189.458 41.052V36.172H188.418V34.684H189.458V32.492H191.298V34.684H193.442V36.172H191.298ZM198.467 43.644C197.635 43.644 196.883 43.4573 196.211 43.084C195.539 42.7 195.011 42.1667 194.627 41.484C194.243 40.7907 194.051 39.9907 194.051 39.084C194.051 38.188 194.248 37.3933 194.643 36.7C195.038 36.0067 195.576 35.4733 196.259 35.1C196.942 34.7267 197.704 34.54 198.547 34.54C199.39 34.54 200.152 34.7267 200.835 35.1C201.518 35.4733 202.056 36.0067 202.451 36.7C202.846 37.3933 203.043 38.188 203.043 39.084C203.043 39.98 202.84 40.7747 202.435 41.468C202.03 42.1613 201.475 42.7 200.771 43.084C200.078 43.4573 199.31 43.644 198.467 43.644ZM198.467 42.06C198.936 42.06 199.374 41.948 199.779 41.724C200.195 41.5 200.531 41.164 200.787 40.716C201.043 40.268 201.171 39.724 201.171 39.084C201.171 38.444 201.048 37.9053 200.803 37.468C200.558 37.02 200.232 36.684 199.827 36.46C199.422 36.236 198.984 36.124 198.515 36.124C198.046 36.124 197.608 36.236 197.203 36.46C196.808 36.684 196.494 37.02 196.259 37.468C196.024 37.9053 195.907 38.444 195.907 39.084C195.907 40.0333 196.147 40.7693 196.627 41.292C197.118 41.804 197.731 42.06 198.467 42.06ZM206.19 35.964C206.457 35.516 206.809 35.1693 207.246 34.924C207.694 34.668 208.222 34.54 208.83 34.54V36.428H208.366C207.652 36.428 207.108 36.6093 206.734 36.972C206.372 37.3347 206.19 37.964 206.19 38.86V43.5H204.366V34.684H206.19V35.964Z" fill="#394964"/>
<path d="M103.602 60.598C103.602 61.41 103.322 62.0867 102.762 62.628C102.211 63.16 101.367 63.426 100.228 63.426H98.352V67.5H97.078V57.742H100.228C101.329 57.742 102.165 58.008 102.734 58.54C103.313 59.072 103.602 59.758 103.602 60.598ZM100.228 62.376C100.937 62.376 101.46 62.222 101.796 61.914C102.132 61.606 102.3 61.1673 102.3 60.598C102.3 59.394 101.609 58.792 100.228 58.792H98.352V62.376H100.228ZM106.039 61.074C106.263 60.6353 106.581 60.2947 106.991 60.052C107.411 59.8093 107.92 59.688 108.517 59.688V61.004H108.181C106.753 61.004 106.039 61.7787 106.039 63.328V67.5H104.765V59.828H106.039V61.074ZM116.568 63.37C116.568 63.6127 116.554 63.8693 116.526 64.14H110.394C110.441 64.896 110.697 65.4887 111.164 65.918C111.64 66.338 112.214 66.548 112.886 66.548C113.437 66.548 113.894 66.422 114.258 66.17C114.631 65.9087 114.893 65.5633 115.042 65.134H116.414C116.209 65.8713 115.798 66.4733 115.182 66.94C114.566 67.3973 113.801 67.626 112.886 67.626C112.158 67.626 111.505 67.4627 110.926 67.136C110.357 66.8093 109.909 66.3473 109.582 65.75C109.255 65.1433 109.092 64.4433 109.092 63.65C109.092 62.8567 109.251 62.1613 109.568 61.564C109.885 60.9667 110.329 60.5093 110.898 60.192C111.477 59.8653 112.139 59.702 112.886 59.702C113.614 59.702 114.258 59.8607 114.818 60.178C115.378 60.4953 115.807 60.934 116.106 61.494C116.414 62.0447 116.568 62.67 116.568 63.37ZM115.252 63.104C115.252 62.6187 115.145 62.2033 114.93 61.858C114.715 61.5033 114.421 61.2373 114.048 61.06C113.684 60.8733 113.278 60.78 112.83 60.78C112.186 60.78 111.635 60.9853 111.178 61.396C110.73 61.8067 110.473 62.376 110.408 63.104H115.252ZM117.354 63.636C117.354 62.852 117.512 62.166 117.83 61.578C118.147 60.9807 118.581 60.5187 119.132 60.192C119.692 59.8653 120.317 59.702 121.008 59.702C121.605 59.702 122.16 59.842 122.674 60.122C123.187 60.3927 123.579 60.752 123.85 61.2V57.14H125.138V67.5H123.85V66.058C123.598 66.5153 123.224 66.8933 122.73 67.192C122.235 67.4813 121.656 67.626 120.994 67.626C120.312 67.626 119.692 67.458 119.132 67.122C118.581 66.786 118.147 66.3147 117.83 65.708C117.512 65.1013 117.354 64.4107 117.354 63.636ZM123.85 63.65C123.85 63.0713 123.733 62.5673 123.5 62.138C123.266 61.7087 122.949 61.382 122.548 61.158C122.156 60.9247 121.722 60.808 121.246 60.808C120.77 60.808 120.336 60.92 119.944 61.144C119.552 61.368 119.239 61.6947 119.006 62.124C118.772 62.5533 118.656 63.0573 118.656 63.636C118.656 64.224 118.772 64.7373 119.006 65.176C119.239 65.6053 119.552 65.9367 119.944 66.17C120.336 66.394 120.77 66.506 121.246 66.506C121.722 66.506 122.156 66.394 122.548 66.17C122.949 65.9367 123.266 65.6053 123.5 65.176C123.733 64.7373 123.85 64.2287 123.85 63.65ZM127.529 58.582C127.286 58.582 127.081 58.498 126.913 58.33C126.745 58.162 126.661 57.9567 126.661 57.714C126.661 57.4713 126.745 57.266 126.913 57.098C127.081 56.93 127.286 56.846 127.529 56.846C127.762 56.846 127.958 56.93 128.117 57.098C128.285 57.266 128.369 57.4713 128.369 57.714C128.369 57.9567 128.285 58.162 128.117 58.33C127.958 58.498 127.762 58.582 127.529 58.582ZM128.145 59.828V67.5H126.871V59.828H128.145ZM129.42 63.65C129.42 62.8567 129.579 62.166 129.896 61.578C130.213 60.9807 130.652 60.5187 131.212 60.192C131.781 59.8653 132.43 59.702 133.158 59.702C134.101 59.702 134.875 59.9307 135.482 60.388C136.098 60.8453 136.504 61.48 136.7 62.292H135.328C135.197 61.8253 134.941 61.4567 134.558 61.186C134.185 60.9153 133.718 60.78 133.158 60.78C132.43 60.78 131.842 61.032 131.394 61.536C130.946 62.0307 130.722 62.7353 130.722 63.65C130.722 64.574 130.946 65.288 131.394 65.792C131.842 66.296 132.43 66.548 133.158 66.548C133.718 66.548 134.185 66.4173 134.558 66.156C134.931 65.8947 135.188 65.5213 135.328 65.036H136.7C136.495 65.82 136.084 66.45 135.468 66.926C134.852 67.3927 134.082 67.626 133.158 67.626C132.43 67.626 131.781 67.4627 131.212 67.136C130.652 66.8093 130.213 66.3473 129.896 65.75C129.579 65.1527 129.42 64.4527 129.42 63.65ZM139.534 60.878V65.4C139.534 65.7733 139.613 66.0393 139.772 66.198C139.931 66.3473 140.206 66.422 140.598 66.422H141.536V67.5H140.388C139.679 67.5 139.147 67.3367 138.792 67.01C138.437 66.6833 138.26 66.1467 138.26 65.4V60.878H137.266V59.828H138.26V57.896H139.534V59.828H141.536V60.878H139.534ZM149.094 60.878H147.484V67.5H146.21V60.878H145.216V59.828H146.21V59.282C146.21 58.4233 146.429 57.798 146.868 57.406C147.316 57.0047 148.03 56.804 149.01 56.804V57.868C148.45 57.868 148.053 57.98 147.82 58.204C147.596 58.4187 147.484 58.778 147.484 59.282V59.828H149.094V60.878ZM156.963 59.828V67.5H155.689V66.366C155.447 66.758 155.106 67.066 154.667 67.29C154.238 67.5047 153.762 67.612 153.239 67.612C152.642 67.612 152.105 67.4907 151.629 67.248C151.153 66.996 150.775 66.6227 150.495 66.128C150.225 65.6333 150.089 65.0313 150.089 64.322V59.828H151.349V64.154C151.349 64.91 151.541 65.4933 151.923 65.904C152.306 66.3053 152.829 66.506 153.491 66.506C154.173 66.506 154.709 66.296 155.101 65.876C155.493 65.456 155.689 64.8447 155.689 64.042V59.828H156.963ZM160.248 60.878V65.4C160.248 65.7733 160.328 66.0393 160.486 66.198C160.645 66.3473 160.92 66.422 161.312 66.422H162.25V67.5H161.102C160.393 67.5 159.861 67.3367 159.506 67.01C159.152 66.6833 158.974 66.1467 158.974 65.4V60.878H157.98V59.828H158.974V57.896H160.248V59.828H162.25V60.878H160.248ZM170.178 59.828V67.5H168.904V66.366C168.661 66.758 168.321 67.066 167.882 67.29C167.453 67.5047 166.977 67.612 166.454 67.612C165.857 67.612 165.32 67.4907 164.844 67.248C164.368 66.996 163.99 66.6227 163.71 66.128C163.439 65.6333 163.304 65.0313 163.304 64.322V59.828H164.564V64.154C164.564 64.91 164.755 65.4933 165.138 65.904C165.521 66.3053 166.043 66.506 166.706 66.506C167.387 66.506 167.924 66.296 168.316 65.876C168.708 65.456 168.904 64.8447 168.904 64.042V59.828H170.178ZM173.183 61.074C173.407 60.6353 173.724 60.2947 174.135 60.052C174.555 59.8093 175.064 59.688 175.661 59.688V61.004H175.325C173.897 61.004 173.183 61.7787 173.183 63.328V67.5H171.909V59.828H173.183V61.074ZM183.712 63.37C183.712 63.6127 183.698 63.8693 183.67 64.14H177.538C177.584 64.896 177.841 65.4887 178.308 65.918C178.784 66.338 179.358 66.548 180.03 66.548C180.58 66.548 181.038 66.422 181.402 66.17C181.775 65.9087 182.036 65.5633 182.186 65.134H183.558C183.352 65.8713 182.942 66.4733 182.326 66.94C181.71 67.3973 180.944 67.626 180.03 67.626C179.302 67.626 178.648 67.4627 178.07 67.136C177.5 66.8093 177.052 66.3473 176.726 65.75C176.399 65.1433 176.236 64.4433 176.236 63.65C176.236 62.8567 176.394 62.1613 176.712 61.564C177.029 60.9667 177.472 60.5093 178.042 60.192C178.62 59.8653 179.283 59.702 180.03 59.702C180.758 59.702 181.402 59.8607 181.962 60.178C182.522 60.4953 182.951 60.934 183.25 61.494C183.558 62.0447 183.712 62.67 183.712 63.37ZM182.396 63.104C182.396 62.6187 182.288 62.2033 182.074 61.858C181.859 61.5033 181.565 61.2373 181.192 61.06C180.828 60.8733 180.422 60.78 179.974 60.78C179.33 60.78 178.779 60.9853 178.322 61.396C177.874 61.8067 177.617 62.376 177.552 63.104H182.396ZM191.408 60.878H189.798V67.5H188.524V60.878H187.53V59.828H188.524V59.282C188.524 58.4233 188.743 57.798 189.182 57.406C189.63 57.0047 190.344 56.804 191.324 56.804V57.868C190.764 57.868 190.367 57.98 190.134 58.204C189.91 58.4187 189.798 58.778 189.798 59.282V59.828H191.408V60.878ZM193.747 61.074C193.971 60.6353 194.289 60.2947 194.699 60.052C195.119 59.8093 195.628 59.688 196.225 59.688V61.004H195.889C194.461 61.004 193.747 61.7787 193.747 63.328V67.5H192.473V59.828H193.747V61.074ZM196.8 63.636C196.8 62.852 196.959 62.166 197.276 61.578C197.593 60.9807 198.027 60.5187 198.578 60.192C199.138 59.8653 199.759 59.702 200.44 59.702C201.112 59.702 201.695 59.8467 202.19 60.136C202.685 60.4253 203.053 60.7893 203.296 61.228V59.828H204.584V67.5H203.296V66.072C203.044 66.52 202.666 66.8933 202.162 67.192C201.667 67.4813 201.089 67.626 200.426 67.626C199.745 67.626 199.129 67.458 198.578 67.122C198.027 66.786 197.593 66.3147 197.276 65.708C196.959 65.1013 196.8 64.4107 196.8 63.636ZM203.296 63.65C203.296 63.0713 203.179 62.5673 202.946 62.138C202.713 61.7087 202.395 61.382 201.994 61.158C201.602 60.9247 201.168 60.808 200.692 60.808C200.216 60.808 199.782 60.92 199.39 61.144C198.998 61.368 198.685 61.6947 198.452 62.124C198.219 62.5533 198.102 63.0573 198.102 63.636C198.102 64.224 198.219 64.7373 198.452 65.176C198.685 65.6053 198.998 65.9367 199.39 66.17C199.782 66.394 200.216 66.506 200.692 66.506C201.168 66.506 201.602 66.394 201.994 66.17C202.395 65.9367 202.713 65.6053 202.946 65.176C203.179 64.7373 203.296 64.2287 203.296 63.65ZM213.121 59.828V67.5H211.847V66.366C211.604 66.758 211.263 67.066 210.825 67.29C210.395 67.5047 209.919 67.612 209.397 67.612C208.799 67.612 208.263 67.4907 207.787 67.248C207.311 66.996 206.933 66.6227 206.653 66.128C206.382 65.6333 206.247 65.0313 206.247 64.322V59.828H207.507V64.154C207.507 64.91 207.698 65.4933 208.081 65.904C208.463 66.3053 208.986 66.506 209.649 66.506C210.33 66.506 210.867 66.296 211.259 65.876C211.651 65.456 211.847 64.8447 211.847 64.042V59.828H213.121ZM214.376 63.636C214.376 62.852 214.535 62.166 214.852 61.578C215.169 60.9807 215.603 60.5187 216.154 60.192C216.714 59.8653 217.339 59.702 218.03 59.702C218.627 59.702 219.183 59.842 219.696 60.122C220.209 60.3927 220.601 60.752 220.872 61.2V57.14H222.16V67.5H220.872V66.058C220.62 66.5153 220.247 66.8933 219.752 67.192C219.257 67.4813 218.679 67.626 218.016 67.626C217.335 67.626 216.714 67.458 216.154 67.122C215.603 66.786 215.169 66.3147 214.852 65.708C214.535 65.1013 214.376 64.4107 214.376 63.636ZM220.872 63.65C220.872 63.0713 220.755 62.5673 220.522 62.138C220.289 61.7087 219.971 61.382 219.57 61.158C219.178 60.9247 218.744 60.808 218.268 60.808C217.792 60.808 217.358 60.92 216.966 61.144C216.574 61.368 216.261 61.6947 216.028 62.124C215.795 62.5533 215.678 63.0573 215.678 63.636C215.678 64.224 215.795 64.7373 216.028 65.176C216.261 65.6053 216.574 65.9367 216.966 66.17C217.358 66.394 217.792 66.506 218.268 66.506C218.744 66.506 219.178 66.394 219.57 66.17C219.971 65.9367 220.289 65.6053 220.522 65.176C220.755 64.7373 220.872 64.2287 220.872 63.65ZM230.697 59.828V67.5H229.423V66.366C229.18 66.758 228.84 67.066 228.401 67.29C227.972 67.5047 227.496 67.612 226.973 67.612C226.376 67.612 225.839 67.4907 225.363 67.248C224.887 66.996 224.509 66.6227 224.229 66.128C223.958 65.6333 223.823 65.0313 223.823 64.322V59.828H225.083V64.154C225.083 64.91 225.274 65.4933 225.657 65.904C226.04 66.3053 226.562 66.506 227.225 66.506C227.906 66.506 228.443 66.296 228.835 65.876C229.227 65.456 229.423 64.8447 229.423 64.042V59.828H230.697ZM233.702 57.14V67.5H232.428V57.14H233.702ZM242.453 63.37C242.453 63.6127 242.439 63.8693 242.411 64.14H236.279C236.326 64.896 236.583 65.4887 237.049 65.918C237.525 66.338 238.099 66.548 238.771 66.548C239.322 66.548 239.779 66.422 240.143 66.17C240.517 65.9087 240.778 65.5633 240.927 65.134H242.299C242.094 65.8713 241.683 66.4733 241.067 66.94C240.451 67.3973 239.686 67.626 238.771 67.626C238.043 67.626 237.39 67.4627 236.811 67.136C236.242 66.8093 235.794 66.3473 235.467 65.75C235.141 65.1433 234.977 64.4433 234.977 63.65C234.977 62.8567 235.136 62.1613 235.453 61.564C235.771 60.9667 236.214 60.5093 236.783 60.192C237.362 59.8653 238.025 59.702 238.771 59.702C239.499 59.702 240.143 59.8607 240.703 60.178C241.263 60.4953 241.693 60.934 241.991 61.494C242.299 62.0447 242.453 62.67 242.453 63.37ZM241.137 63.104C241.137 62.6187 241.03 62.2033 240.815 61.858C240.601 61.5033 240.307 61.2373 239.933 61.06C239.569 60.8733 239.163 60.78 238.715 60.78C238.071 60.78 237.521 60.9853 237.063 61.396C236.615 61.8067 236.359 62.376 236.293 63.104H241.137ZM247.453 59.688C248.386 59.688 249.142 59.9727 249.721 60.542C250.3 61.102 250.589 61.914 250.589 62.978V67.5H249.329V63.16C249.329 62.3947 249.138 61.8113 248.755 61.41C248.372 60.9993 247.85 60.794 247.187 60.794C246.515 60.794 245.978 61.004 245.577 61.424C245.185 61.844 244.989 62.4553 244.989 63.258V67.5H243.715V59.828H244.989V60.92C245.241 60.528 245.582 60.2247 246.011 60.01C246.45 59.7953 246.93 59.688 247.453 59.688ZM253.804 60.878V65.4C253.804 65.7733 253.883 66.0393 254.042 66.198C254.201 66.3473 254.476 66.422 254.868 66.422H255.806V67.5H254.658C253.949 67.5 253.417 67.3367 253.062 67.01C252.707 66.6833 252.53 66.1467 252.53 65.4V60.878H251.536V59.828H252.53V57.896H253.804V59.828H255.806V60.878H253.804ZM270.462 59.828L268.068 67.5H266.752L264.904 61.41L263.056 67.5H261.74L259.332 59.828H260.634L262.398 66.268L264.302 59.828H265.604L267.466 66.282L269.202 59.828H270.462ZM270.83 63.636C270.83 62.852 270.989 62.166 271.306 61.578C271.624 60.9807 272.058 60.5187 272.608 60.192C273.168 59.8653 273.789 59.702 274.47 59.702C275.142 59.702 275.726 59.8467 276.22 60.136C276.715 60.4253 277.084 60.7893 277.326 61.228V59.828H278.614V67.5H277.326V66.072C277.074 66.52 276.696 66.8933 276.192 67.192C275.698 67.4813 275.119 67.626 274.456 67.626C273.775 67.626 273.159 67.458 272.608 67.122C272.058 66.786 271.624 66.3147 271.306 65.708C270.989 65.1013 270.83 64.4107 270.83 63.636ZM277.326 63.65C277.326 63.0713 277.21 62.5673 276.976 62.138C276.743 61.7087 276.426 61.382 276.024 61.158C275.632 60.9247 275.198 60.808 274.722 60.808C274.246 60.808 273.812 60.92 273.42 61.144C273.028 61.368 272.716 61.6947 272.482 62.124C272.249 62.5533 272.132 63.0573 272.132 63.636C272.132 64.224 272.249 64.7373 272.482 65.176C272.716 65.6053 273.028 65.9367 273.42 66.17C273.812 66.394 274.246 66.506 274.722 66.506C275.198 66.506 275.632 66.394 276.024 66.17C276.426 65.9367 276.743 65.6053 276.976 65.176C277.21 64.7373 277.326 64.2287 277.326 63.65ZM281.621 57.14V67.5H280.347V57.14H281.621ZM284.647 57.14V67.5H283.373V57.14H284.647ZM293.398 63.37C293.398 63.6127 293.384 63.8693 293.356 64.14H287.224C287.271 64.896 287.527 65.4887 287.994 65.918C288.47 66.338 289.044 66.548 289.716 66.548C290.267 66.548 290.724 66.422 291.088 66.17C291.461 65.9087 291.723 65.5633 291.872 65.134H293.244C293.039 65.8713 292.628 66.4733 292.012 66.94C291.396 67.3973 290.631 67.626 289.716 67.626C288.988 67.626 288.335 67.4627 287.756 67.136C287.187 66.8093 286.739 66.3473 286.412 65.75C286.085 65.1433 285.922 64.4433 285.922 63.65C285.922 62.8567 286.081 62.1613 286.398 61.564C286.715 60.9667 287.159 60.5093 287.728 60.192C288.307 59.8653 288.969 59.702 289.716 59.702C290.444 59.702 291.088 59.8607 291.648 60.178C292.208 60.4953 292.637 60.934 292.936 61.494C293.244 62.0447 293.398 62.67 293.398 63.37ZM292.082 63.104C292.082 62.6187 291.975 62.2033 291.76 61.858C291.545 61.5033 291.251 61.2373 290.878 61.06C290.514 60.8733 290.108 60.78 289.66 60.78C289.016 60.78 288.465 60.9853 288.008 61.396C287.56 61.8067 287.303 62.376 287.238 63.104H292.082ZM296.214 60.878V65.4C296.214 65.7733 296.293 66.0393 296.452 66.198C296.61 66.3473 296.886 66.422 297.278 66.422H298.216V67.5H297.068C296.358 67.5 295.826 67.3367 295.472 67.01C295.117 66.6833 294.94 66.1467 294.94 65.4V60.878H293.946V59.828H294.94V57.896H296.214V59.828H298.216V60.878H296.214ZM302.055 67.626C301.467 67.626 300.94 67.528 300.473 67.332C300.007 67.1267 299.638 66.8467 299.367 66.492C299.097 66.128 298.947 65.7127 298.919 65.246H300.235C300.273 65.6287 300.45 65.9413 300.767 66.184C301.094 66.4267 301.519 66.548 302.041 66.548C302.527 66.548 302.909 66.4407 303.189 66.226C303.469 66.0113 303.609 65.7407 303.609 65.414C303.609 65.078 303.46 64.8307 303.161 64.672C302.863 64.504 302.401 64.3407 301.775 64.182C301.206 64.0327 300.739 63.8833 300.375 63.734C300.021 63.5753 299.713 63.3467 299.451 63.048C299.199 62.74 299.073 62.3387 299.073 61.844C299.073 61.452 299.19 61.0927 299.423 60.766C299.657 60.4393 299.988 60.1827 300.417 59.996C300.847 59.8 301.337 59.702 301.887 59.702C302.737 59.702 303.423 59.9167 303.945 60.346C304.468 60.7753 304.748 61.3633 304.785 62.11H303.511C303.483 61.7087 303.32 61.3867 303.021 61.144C302.732 60.9013 302.34 60.78 301.845 60.78C301.388 60.78 301.024 60.878 300.753 61.074C300.483 61.27 300.347 61.5267 300.347 61.844C300.347 62.096 300.427 62.306 300.585 62.474C300.753 62.6327 300.959 62.7633 301.201 62.866C301.453 62.9593 301.799 63.0667 302.237 63.188C302.788 63.3373 303.236 63.4867 303.581 63.636C303.927 63.776 304.221 63.9907 304.463 64.28C304.715 64.5693 304.846 64.9473 304.855 65.414C304.855 65.834 304.739 66.212 304.505 66.548C304.272 66.884 303.941 67.15 303.511 67.346C303.091 67.5327 302.606 67.626 302.055 67.626Z" fill="#4E6C8E"/>
</g>
<defs>
<filter id="filter0_f_1339_2301" x="-209.78" y="-173.601" width="582.796" height="489.714" filterUnits="userSpaceOnUse" color-interpolation-filters="sRGB">
<feFlood flood-opacity="0" result="BackgroundImageFix"/>
<feBlend mode="normal" in="SourceGraphic" in2="BackgroundImageFix" result="shape"/>
<feGaussianBlur stdDeviation="36.5911" result="effect1_foregroundBlur_1339_2301"/>
</filter>
<filter id="filter1_bii_1339_2301" x="28.8563" y="24.3231" width="34.9264" height="41.5634" filterUnits="userSpaceOnUse" color-interpolation-filters="sRGB">
<feFlood flood-opacity="0" result="BackgroundImageFix"/>
<feGaussianBlur in="BackgroundImageFix" stdDeviation="1.46249"/>
<feComposite in2="SourceAlpha" operator="in" result="effect1_backgroundBlur_1339_2301"/>
<feBlend mode="normal" in="SourceGraphic" in2="effect1_backgroundBlur_1339_2301" result="shape"/>
<feColorMatrix in="SourceAlpha" type="matrix" values="0 0 0 0 0 0 0 0 0 0 0 0 0 0 0 0 0 0 127 0" result="hardAlpha"/>
<feOffset/>
<feGaussianBlur stdDeviation="1.46249"/>
<feComposite in2="hardAlpha" operator="arithmetic" k2="-1" k3="1"/>
<feColorMatrix type="matrix" values="0 0 0 0 1 0 0 0 0 1 0 0 0 0 1 0 0 0 1 0"/>
<feBlend mode="normal" in2="shape" result="effect2_innerShadow_1339_2301"/>
<feColorMatrix in="SourceAlpha" type="matrix" values="0 0 0 0 0 0 0 0 0 0 0 0 0 0 0 0 0 0 127 0" result="hardAlpha"/>
<feOffset dy="2.92499"/>
<feGaussianBlur stdDeviation="2.92499"/>
<feComposite in2="hardAlpha" operator="arithmetic" k2="-1" k3="1"/>
<feColorMatrix type="matrix" values="0 0 0 0 1 0 0 0 0 1 0 0 0 0 1 0 0 0 1 0"/>
<feBlend mode="normal" in2="effect2_innerShadow_1339_2301" result="effect3_innerShadow_1339_2301"/>
</filter>
<filter id="filter2_bii_1339_2301" x="17.1753" y="46.8901" width="27.8205" height="27.8241" filterUnits="userSpaceOnUse" color-interpolation-filters="sRGB">
<feFlood flood-opacity="0" result="BackgroundImageFix"/>
<feGaussianBlur in="BackgroundImageFix" stdDeviation="0.982673"/>
<feComposite in2="SourceAlpha" operator="in" result="effect1_backgroundBlur_1339_2301"/>
<feBlend mode="normal" in="SourceGraphic" in2="effect1_backgroundBlur_1339_2301" result="shape"/>
<feColorMatrix in="SourceAlpha" type="matrix" values="0 0 0 0 0 0 0 0 0 0 0 0 0 0 0 0 0 0 127 0" result="hardAlpha"/>
<feOffset/>
<feGaussianBlur stdDeviation="0.982673"/>
<feComposite in2="hardAlpha" operator="arithmetic" k2="-1" k3="1"/>
<feColorMatrix type="matrix" values="0 0 0 0 1 0 0 0 0 1 0 0 0 0 1 0 0 0 1 0"/>
<feBlend mode="normal" in2="shape" result="effect2_innerShadow_1339_2301"/>
<feColorMatrix in="SourceAlpha" type="matrix" values="0 0 0 0 0 0 0 0 0 0 0 0 0 0 0 0 0 0 127 0" result="hardAlpha"/>
<feOffset dy="1.96535"/>
<feGaussianBlur stdDeviation="1.96535"/>
<feComposite in2="hardAlpha" operator="arithmetic" k2="-1" k3="1"/>
<feColorMatrix type="matrix" values="0 0 0 0 1 0 0 0 0 1 0 0 0 0 1 0 0 0 1 0"/>
<feBlend mode="normal" in2="effect2_innerShadow_1339_2301" result="effect3_innerShadow_1339_2301"/>
</filter>
<linearGradient id="paint0_linear_1339_2301" x1="-112.508" y1="67.2661" x2="-43.5862" y2="-41.8983" gradientUnits="userSpaceOnUse">
<stop offset="0.0417483" stop-color="#F3BA2F"/>
<stop offset="1" stop-color="white"/>
</linearGradient>
<linearGradient id="paint1_linear_1339_2301" x1="50.675" y1="23.4864" x2="26.9265" y2="59.8942" gradientUnits="userSpaceOnUse">
<stop stop-color="#F3BA2F"/>
<stop offset="1" stop-color="#FF80DD"/>
</linearGradient>
<clipPath id="clip0_1339_2301">
<rect width="327" height="100" rx="16" fill="white"/>
</clipPath>
<clipPath id="clip1_1339_2301">
<rect width="80" height="100" fill="white"/>
</clipPath>
</defs>
</svg>
