<svg width="327" height="100" viewBox="0 0 327 100" fill="none" xmlns="http://www.w3.org/2000/svg">
<g clip-path="url(#clip0_1339_2302)">
<rect width="327" height="100" rx="16" fill="white"/>
<g clip-path="url(#clip1_1339_2302)">
<rect width="80" height="100" fill="#F2F6FF"/>
<g filter="url(#filter0_f_1339_2302)">
<path d="M102.29 -111.512C53.506 -6.16196 -62.4619 33.1076 -118.089 53.2517C-173.717 73.3958 -188.851 24.7177 -194.397 9.40328C-199.942 -5.91115 -182.259 -132.179 -126.631 -152.323C-71.004 -172.467 112.349 -210.029 102.29 -111.512Z" fill="url(#paint0_linear_1339_2302)"/>
</g>
<g filter="url(#filter1_f_1339_2302)">
<path d="M154.293 180.025C103.8 214.635 40.656 201.192 10.015 195.337C-20.626 189.481 -14.3719 163.34 -12.7599 154.904C-11.1478 146.469 30.8844 93.9996 61.5254 99.855C92.1664 105.71 185.394 138.081 154.293 180.025Z" fill="url(#paint1_linear_1339_2302)"/>
</g>
<g clip-path="url(#clip2_1339_2302)">
<g filter="url(#filter2_bii_1339_2302)">
<path fill-rule="evenodd" clip-rule="evenodd" d="M57.9018 43.175C57.9018 36.614 57.9018 33.3335 56.6426 30.89C55.8176 29.2892 54.6311 27.96 53.2023 27.0358C51.0213 25.625 48.0932 25.625 42.237 25.625C36.3808 25.625 33.4527 25.625 31.2717 27.0358C29.8429 27.96 28.6564 29.2892 27.8315 30.89C26.5723 33.3335 26.5723 36.614 26.5723 43.175C26.5723 49.736 26.5723 53.0165 27.8315 55.46C28.6564 57.0608 29.8429 58.39 31.2717 59.3142C33.4527 60.725 36.3808 60.725 42.237 60.725C48.0932 60.725 51.0213 60.725 53.2023 59.3142C54.6311 58.39 55.8176 57.0608 56.6426 55.46C57.9018 53.0165 57.9018 49.736 57.9018 43.175ZM38.2959 38.456C38.7021 38.8622 38.7021 39.5207 38.2959 39.9268L35.0481 43.1747L38.2959 46.4225C38.7021 46.8287 38.7021 47.4872 38.2959 47.8933C37.8898 48.2994 37.2313 48.2994 36.8252 47.8933L32.8419 43.91C32.4358 43.5039 32.4358 42.8454 32.8419 42.4393L36.8252 38.456C37.2313 38.0499 37.8898 38.0499 38.2959 38.456ZM46.1787 39.9268C45.7725 39.5207 45.7725 38.8622 46.1787 38.456C46.5848 38.0499 47.2433 38.0499 47.6495 38.456L51.6327 42.4393C52.0388 42.8454 52.0388 43.5039 51.6327 43.91L47.6495 47.8933C47.2433 48.2994 46.5848 48.2994 46.1787 47.8933C45.7725 47.4872 45.7725 46.8287 46.1787 46.4225L49.4265 43.1747L46.1787 39.9268Z" fill="url(#paint2_linear_1339_2302)"/>
</g>
<g filter="url(#filter3_bii_1339_2302)">
<path d="M38.9803 66.4871L44.2599 71.7658C44.6715 72.1773 44.6715 72.8445 44.26 73.2561C43.8485 73.6676 43.1812 73.6676 42.7697 73.256L37.491 67.9764C35.8129 69.3216 33.7256 70.0533 31.5749 70.0502C26.3424 70.0502 22.0957 65.8035 22.0957 60.571C22.0957 55.3385 26.3424 51.0918 31.5749 51.0918C36.8074 51.0918 41.0541 55.3385 41.0541 60.571C41.0572 62.7217 40.3255 64.809 38.9803 66.4871Z" fill="white" fill-opacity="0.4"/>
</g>
</g>
</g>
<path d="M102.976 33L100.416 28.552H99.024V33H97.2V21.88H101.04C101.893 21.88 102.613 22.0293 103.2 22.328C103.797 22.6267 104.24 23.0267 104.528 23.528C104.827 24.0293 104.976 24.5893 104.976 25.208C104.976 25.9333 104.763 26.5947 104.336 27.192C103.92 27.7787 103.275 28.1787 102.4 28.392L105.152 33H102.976ZM99.024 27.096H101.04C101.723 27.096 102.235 26.9253 102.576 26.584C102.928 26.2427 103.104 25.784 103.104 25.208C103.104 24.632 102.933 24.184 102.592 23.864C102.251 23.5333 101.733 23.368 101.04 23.368H99.024V27.096ZM114.813 24.184V33H112.989V31.96C112.701 32.3227 112.323 32.6107 111.853 32.824C111.395 33.0267 110.904 33.128 110.381 33.128C109.688 33.128 109.064 32.984 108.509 32.696C107.965 32.408 107.533 31.9813 107.213 31.416C106.904 30.8507 106.749 30.168 106.749 29.368V24.184H108.557V29.096C108.557 29.8853 108.755 30.4933 109.149 30.92C109.544 31.336 110.083 31.544 110.765 31.544C111.448 31.544 111.987 31.336 112.381 30.92C112.787 30.4933 112.989 29.8853 112.989 29.096V24.184H114.813ZM120.292 24.04C120.975 24.04 121.577 24.1787 122.1 24.456C122.633 24.7227 123.049 25.0587 123.348 25.464V24.184H125.188V33.144C125.188 33.9547 125.017 34.6747 124.676 35.304C124.335 35.944 123.839 36.4453 123.188 36.808C122.548 37.1707 121.78 37.352 120.884 37.352C119.689 37.352 118.697 37.0693 117.908 36.504C117.119 35.9493 116.671 35.192 116.564 34.232H118.372C118.511 34.6907 118.804 35.0587 119.252 35.336C119.711 35.624 120.255 35.768 120.884 35.768C121.62 35.768 122.212 35.544 122.66 35.096C123.119 34.648 123.348 33.9973 123.348 33.144V31.672C123.039 32.088 122.617 32.44 122.084 32.728C121.561 33.0053 120.964 33.144 120.292 33.144C119.524 33.144 118.82 32.952 118.18 32.568C117.551 32.1733 117.049 31.6293 116.676 30.936C116.313 30.232 116.132 29.4373 116.132 28.552C116.132 27.6667 116.313 26.8827 116.676 26.2C117.049 25.5173 117.551 24.9893 118.18 24.616C118.82 24.232 119.524 24.04 120.292 24.04ZM123.348 28.584C123.348 27.976 123.22 27.448 122.964 27C122.719 26.552 122.393 26.2107 121.988 25.976C121.583 25.7413 121.145 25.624 120.676 25.624C120.207 25.624 119.769 25.7413 119.364 25.976C118.959 26.2 118.628 26.536 118.372 26.984C118.127 27.4213 118.004 27.944 118.004 28.552C118.004 29.16 118.127 29.6933 118.372 30.152C118.628 30.6107 118.959 30.9627 119.364 31.208C119.78 31.4427 120.217 31.56 120.676 31.56C121.145 31.56 121.583 31.4427 121.988 31.208C122.393 30.9733 122.719 30.632 122.964 30.184C123.22 29.7253 123.348 29.192 123.348 28.584ZM138.556 25.192C138.556 25.7573 138.423 26.2907 138.156 26.792C137.889 27.2933 137.463 27.704 136.876 28.024C136.289 28.3333 135.537 28.488 134.62 28.488H132.604V33H130.78V21.88H134.62C135.473 21.88 136.193 22.0293 136.78 22.328C137.377 22.616 137.82 23.0107 138.108 23.512C138.407 24.0133 138.556 24.5733 138.556 25.192ZM134.62 27C135.313 27 135.831 26.8453 136.172 26.536C136.513 26.216 136.684 25.768 136.684 25.192C136.684 23.976 135.996 23.368 134.62 23.368H132.604V27H134.62ZM147.8 24.184V33H145.976V31.96C145.688 32.3227 145.309 32.6107 144.84 32.824C144.381 33.0267 143.89 33.128 143.368 33.128C142.674 33.128 142.05 32.984 141.496 32.696C140.952 32.408 140.52 31.9813 140.2 31.416C139.89 30.8507 139.736 30.168 139.736 29.368V24.184H141.544V29.096C141.544 29.8853 141.741 30.4933 142.136 30.92C142.53 31.336 143.069 31.544 143.752 31.544C144.434 31.544 144.973 31.336 145.368 30.92C145.773 30.4933 145.976 29.8853 145.976 29.096V24.184H147.8ZM151.55 21.16V33H149.726V21.16H151.55ZM155.289 21.16V33H153.465V21.16H155.289ZM164.512 21.88C165.696 21.88 166.731 22.1093 167.616 22.568C168.512 23.016 169.2 23.6667 169.68 24.52C170.171 25.3627 170.416 26.3493 170.416 27.48C170.416 28.6107 170.171 29.592 169.68 30.424C169.2 31.256 168.512 31.896 167.616 32.344C166.731 32.7813 165.696 33 164.512 33H160.88V21.88H164.512ZM164.512 31.512C165.813 31.512 166.811 31.16 167.504 30.456C168.197 29.752 168.544 28.76 168.544 27.48C168.544 26.1893 168.197 25.1813 167.504 24.456C166.811 23.7307 165.813 23.368 164.512 23.368H162.704V31.512H164.512ZM179.824 28.376C179.824 28.7067 179.802 29.0053 179.76 29.272H173.024C173.077 29.976 173.338 30.5413 173.808 30.968C174.277 31.3947 174.853 31.608 175.536 31.608C176.517 31.608 177.21 31.1973 177.616 30.376H179.584C179.317 31.1867 178.832 31.8533 178.128 32.376C177.434 32.888 176.57 33.144 175.536 33.144C174.693 33.144 173.936 32.9573 173.264 32.584C172.602 32.2 172.08 31.6667 171.696 30.984C171.322 30.2907 171.136 29.4907 171.136 28.584C171.136 27.6773 171.317 26.8827 171.68 26.2C172.053 25.5067 172.57 24.9733 173.232 24.6C173.904 24.2267 174.672 24.04 175.536 24.04C176.368 24.04 177.109 24.2213 177.76 24.584C178.41 24.9467 178.917 25.4587 179.28 26.12C179.642 26.7707 179.824 27.5227 179.824 28.376ZM177.92 27.8C177.909 27.128 177.669 26.5893 177.2 26.184C176.73 25.7787 176.149 25.576 175.456 25.576C174.826 25.576 174.288 25.7787 173.84 26.184C173.392 26.5787 173.125 27.1173 173.04 27.8H177.92ZM183.267 25.672V30.552C183.267 30.8827 183.341 31.1227 183.491 31.272C183.651 31.4107 183.917 31.48 184.291 31.48H185.411V33H183.971C183.149 33 182.52 32.808 182.083 32.424C181.645 32.04 181.427 31.416 181.427 30.552V25.672H180.387V24.184H181.427V21.992H183.267V24.184H185.411V25.672H183.267ZM194.692 28.376C194.692 28.7067 194.671 29.0053 194.628 29.272H187.892C187.945 29.976 188.207 30.5413 188.676 30.968C189.145 31.3947 189.721 31.608 190.404 31.608C191.385 31.608 192.079 31.1973 192.484 30.376H194.452C194.185 31.1867 193.7 31.8533 192.996 32.376C192.303 32.888 191.439 33.144 190.404 33.144C189.561 33.144 188.804 32.9573 188.132 32.584C187.471 32.2 186.948 31.6667 186.564 30.984C186.191 30.2907 186.004 29.4907 186.004 28.584C186.004 27.6773 186.185 26.8827 186.548 26.2C186.921 25.5067 187.439 24.9733 188.1 24.6C188.772 24.2267 189.54 24.04 190.404 24.04C191.236 24.04 191.977 24.2213 192.628 24.584C193.279 24.9467 193.785 25.4587 194.148 26.12C194.511 26.7707 194.692 27.5227 194.692 28.376ZM192.788 27.8C192.777 27.128 192.537 26.5893 192.068 26.184C191.599 25.7787 191.017 25.576 190.324 25.576C189.695 25.576 189.156 25.7787 188.708 26.184C188.26 26.5787 187.993 27.1173 187.908 27.8H192.788ZM195.399 28.584C195.399 27.6773 195.58 26.8827 195.943 26.2C196.316 25.5067 196.828 24.9733 197.479 24.6C198.13 24.2267 198.876 24.04 199.719 24.04C200.786 24.04 201.666 24.296 202.359 24.808C203.063 25.3093 203.538 26.0293 203.783 26.968H201.815C201.655 26.5307 201.399 26.1893 201.047 25.944C200.695 25.6987 200.252 25.576 199.719 25.576C198.972 25.576 198.375 25.8427 197.927 26.376C197.49 26.8987 197.271 27.6347 197.271 28.584C197.271 29.5333 197.49 30.2747 197.927 30.808C198.375 31.3413 198.972 31.608 199.719 31.608C200.775 31.608 201.474 31.144 201.815 30.216H203.783C203.527 31.112 203.047 31.8267 202.343 32.36C201.639 32.8827 200.764 33.144 199.719 33.144C198.876 33.144 198.13 32.9573 197.479 32.584C196.828 32.2 196.316 31.6667 195.943 30.984C195.58 30.2907 195.399 29.4907 195.399 28.584ZM207.249 25.672V30.552C207.249 30.8827 207.323 31.1227 207.473 31.272C207.633 31.4107 207.899 31.48 208.273 31.48H209.393V33H207.953C207.131 33 206.502 32.808 206.065 32.424C205.627 32.04 205.409 31.416 205.409 30.552V25.672H204.369V24.184H205.409V21.992H207.249V24.184H209.393V25.672H207.249ZM211.522 23.016C211.191 23.016 210.914 22.904 210.69 22.68C210.466 22.456 210.354 22.1787 210.354 21.848C210.354 21.5173 210.466 21.24 210.69 21.016C210.914 20.792 211.191 20.68 211.522 20.68C211.842 20.68 212.114 20.792 212.338 21.016C212.562 21.24 212.674 21.5173 212.674 21.848C212.674 22.1787 212.562 22.456 212.338 22.68C212.114 22.904 211.842 23.016 211.522 23.016ZM212.418 24.184V33H210.594V24.184H212.418ZM218.156 33.144C217.324 33.144 216.572 32.9573 215.9 32.584C215.228 32.2 214.7 31.6667 214.316 30.984C213.932 30.2907 213.74 29.4907 213.74 28.584C213.74 27.688 213.938 26.8933 214.332 26.2C214.727 25.5067 215.266 24.9733 215.948 24.6C216.631 24.2267 217.394 24.04 218.236 24.04C219.079 24.04 219.842 24.2267 220.524 24.6C221.207 24.9733 221.746 25.5067 222.141 26.2C222.535 26.8933 222.733 27.688 222.733 28.584C222.733 29.48 222.53 30.2747 222.125 30.968C221.719 31.6613 221.165 32.2 220.461 32.584C219.767 32.9573 218.999 33.144 218.156 33.144ZM218.156 31.56C218.626 31.56 219.063 31.448 219.469 31.224C219.885 31 220.221 30.664 220.477 30.216C220.732 29.768 220.86 29.224 220.86 28.584C220.86 27.944 220.738 27.4053 220.492 26.968C220.247 26.52 219.922 26.184 219.516 25.96C219.111 25.736 218.674 25.624 218.204 25.624C217.735 25.624 217.298 25.736 216.892 25.96C216.498 26.184 216.183 26.52 215.948 26.968C215.714 27.4053 215.596 27.944 215.596 28.584C215.596 29.5333 215.836 30.2693 216.316 30.792C216.807 31.304 217.42 31.56 218.156 31.56ZM228.504 24.04C229.197 24.04 229.816 24.184 230.36 24.472C230.914 24.76 231.346 25.1867 231.656 25.752C231.965 26.3173 232.12 27 232.12 27.8V33H230.312V28.072C230.312 27.2827 230.114 26.68 229.72 26.264C229.325 25.8373 228.786 25.624 228.104 25.624C227.421 25.624 226.877 25.8373 226.472 26.264C226.077 26.68 225.88 27.2827 225.88 28.072V33H224.056V24.184H225.88V25.192C226.178 24.8293 226.557 24.5467 227.016 24.344C227.485 24.1413 227.981 24.04 228.504 24.04Z" fill="#394964"/>
<path d="M103.602 50.098C103.602 50.91 103.322 51.5867 102.762 52.128C102.211 52.66 101.367 52.926 100.228 52.926H98.352V57H97.078V47.242H100.228C101.329 47.242 102.165 47.508 102.734 48.04C103.313 48.572 103.602 49.258 103.602 50.098ZM100.228 51.876C100.937 51.876 101.46 51.722 101.796 51.414C102.132 51.106 102.3 50.6673 102.3 50.098C102.3 48.894 101.609 48.292 100.228 48.292H98.352V51.876H100.228ZM106.039 50.574C106.263 50.1353 106.581 49.7947 106.991 49.552C107.411 49.3093 107.92 49.188 108.517 49.188V50.504H108.181C106.753 50.504 106.039 51.2787 106.039 52.828V57H104.765V49.328H106.039V50.574ZM116.568 52.87C116.568 53.1127 116.554 53.3693 116.526 53.64H110.394C110.441 54.396 110.697 54.9887 111.164 55.418C111.64 55.838 112.214 56.048 112.886 56.048C113.437 56.048 113.894 55.922 114.258 55.67C114.631 55.4087 114.893 55.0633 115.042 54.634H116.414C116.209 55.3713 115.798 55.9733 115.182 56.44C114.566 56.8973 113.801 57.126 112.886 57.126C112.158 57.126 111.505 56.9627 110.926 56.636C110.357 56.3093 109.909 55.8473 109.582 55.25C109.255 54.6433 109.092 53.9433 109.092 53.15C109.092 52.3567 109.251 51.6613 109.568 51.064C109.885 50.4667 110.329 50.0093 110.898 49.692C111.477 49.3653 112.139 49.202 112.886 49.202C113.614 49.202 114.258 49.3607 114.818 49.678C115.378 49.9953 115.807 50.434 116.106 50.994C116.414 51.5447 116.568 52.17 116.568 52.87ZM115.252 52.604C115.252 52.1187 115.145 51.7033 114.93 51.358C114.715 51.0033 114.421 50.7373 114.048 50.56C113.684 50.3733 113.278 50.28 112.83 50.28C112.186 50.28 111.635 50.4853 111.178 50.896C110.73 51.3067 110.473 51.876 110.408 52.604H115.252ZM117.354 53.136C117.354 52.352 117.512 51.666 117.83 51.078C118.147 50.4807 118.581 50.0187 119.132 49.692C119.692 49.3653 120.317 49.202 121.008 49.202C121.605 49.202 122.16 49.342 122.674 49.622C123.187 49.8927 123.579 50.252 123.85 50.7V46.64H125.138V57H123.85V55.558C123.598 56.0153 123.224 56.3933 122.73 56.692C122.235 56.9813 121.656 57.126 120.994 57.126C120.312 57.126 119.692 56.958 119.132 56.622C118.581 56.286 118.147 55.8147 117.83 55.208C117.512 54.6013 117.354 53.9107 117.354 53.136ZM123.85 53.15C123.85 52.5713 123.733 52.0673 123.5 51.638C123.266 51.2087 122.949 50.882 122.548 50.658C122.156 50.4247 121.722 50.308 121.246 50.308C120.77 50.308 120.336 50.42 119.944 50.644C119.552 50.868 119.239 51.1947 119.006 51.624C118.772 52.0533 118.656 52.5573 118.656 53.136C118.656 53.724 118.772 54.2373 119.006 54.676C119.239 55.1053 119.552 55.4367 119.944 55.67C120.336 55.894 120.77 56.006 121.246 56.006C121.722 56.006 122.156 55.894 122.548 55.67C122.949 55.4367 123.266 55.1053 123.5 54.676C123.733 54.2373 123.85 53.7287 123.85 53.15ZM127.529 48.082C127.286 48.082 127.081 47.998 126.913 47.83C126.745 47.662 126.661 47.4567 126.661 47.214C126.661 46.9713 126.745 46.766 126.913 46.598C127.081 46.43 127.286 46.346 127.529 46.346C127.762 46.346 127.958 46.43 128.117 46.598C128.285 46.766 128.369 46.9713 128.369 47.214C128.369 47.4567 128.285 47.662 128.117 47.83C127.958 47.998 127.762 48.082 127.529 48.082ZM128.145 49.328V57H126.871V49.328H128.145ZM129.42 53.15C129.42 52.3567 129.579 51.666 129.896 51.078C130.213 50.4807 130.652 50.0187 131.212 49.692C131.781 49.3653 132.43 49.202 133.158 49.202C134.101 49.202 134.875 49.4307 135.482 49.888C136.098 50.3453 136.504 50.98 136.7 51.792H135.328C135.197 51.3253 134.941 50.9567 134.558 50.686C134.185 50.4153 133.718 50.28 133.158 50.28C132.43 50.28 131.842 50.532 131.394 51.036C130.946 51.5307 130.722 52.2353 130.722 53.15C130.722 54.074 130.946 54.788 131.394 55.292C131.842 55.796 132.43 56.048 133.158 56.048C133.718 56.048 134.185 55.9173 134.558 55.656C134.931 55.3947 135.188 55.0213 135.328 54.536H136.7C136.495 55.32 136.084 55.95 135.468 56.426C134.852 56.8927 134.082 57.126 133.158 57.126C132.43 57.126 131.781 56.9627 131.212 56.636C130.652 56.3093 130.213 55.8473 129.896 55.25C129.579 54.6527 129.42 53.9527 129.42 53.15ZM139.534 50.378V54.9C139.534 55.2733 139.613 55.5393 139.772 55.698C139.931 55.8473 140.206 55.922 140.598 55.922H141.536V57H140.388C139.679 57 139.147 56.8367 138.792 56.51C138.437 56.1833 138.26 55.6467 138.26 54.9V50.378H137.266V49.328H138.26V47.396H139.534V49.328H141.536V50.378H139.534ZM156.192 49.328L153.798 57H152.482L150.634 50.91L148.786 57H147.47L145.062 49.328H146.364L148.128 55.768L150.032 49.328H151.334L153.196 55.782L154.932 49.328H156.192ZM160.844 49.188C161.423 49.188 161.946 49.314 162.412 49.566C162.879 49.8087 163.243 50.1773 163.504 50.672C163.775 51.1667 163.91 51.7687 163.91 52.478V57H162.65V52.66C162.65 51.8947 162.459 51.3113 162.076 50.91C161.694 50.4993 161.171 50.294 160.508 50.294C159.836 50.294 159.3 50.504 158.898 50.924C158.506 51.344 158.31 51.9553 158.31 52.758V57H157.036V46.64H158.31V50.42C158.562 50.028 158.908 49.7247 159.346 49.51C159.794 49.2953 160.294 49.188 160.844 49.188ZM166.229 48.082C165.987 48.082 165.781 47.998 165.613 47.83C165.445 47.662 165.361 47.4567 165.361 47.214C165.361 46.9713 165.445 46.766 165.613 46.598C165.781 46.43 165.987 46.346 166.229 46.346C166.463 46.346 166.659 46.43 166.817 46.598C166.985 46.766 167.069 46.9713 167.069 47.214C167.069 47.4567 166.985 47.662 166.817 47.83C166.659 47.998 166.463 48.082 166.229 48.082ZM166.845 49.328V57H165.571V49.328H166.845ZM168.121 53.15C168.121 52.3567 168.279 51.666 168.597 51.078C168.914 50.4807 169.353 50.0187 169.913 49.692C170.482 49.3653 171.131 49.202 171.859 49.202C172.801 49.202 173.576 49.4307 174.183 49.888C174.799 50.3453 175.205 50.98 175.401 51.792H174.029C173.898 51.3253 173.641 50.9567 173.259 50.686C172.885 50.4153 172.419 50.28 171.859 50.28C171.131 50.28 170.543 50.532 170.095 51.036C169.647 51.5307 169.423 52.2353 169.423 53.15C169.423 54.074 169.647 54.788 170.095 55.292C170.543 55.796 171.131 56.048 171.859 56.048C172.419 56.048 172.885 55.9173 173.259 55.656C173.632 55.3947 173.889 55.0213 174.029 54.536H175.401C175.195 55.32 174.785 55.95 174.169 56.426C173.553 56.8927 172.783 57.126 171.859 57.126C171.131 57.126 170.482 56.9627 169.913 56.636C169.353 56.3093 168.914 55.8473 168.597 55.25C168.279 54.6527 168.121 53.9527 168.121 53.15ZM180.489 49.188C181.067 49.188 181.59 49.314 182.057 49.566C182.523 49.8087 182.887 50.1773 183.149 50.672C183.419 51.1667 183.555 51.7687 183.555 52.478V57H182.295V52.66C182.295 51.8947 182.103 51.3113 181.721 50.91C181.338 50.4993 180.815 50.294 180.153 50.294C179.481 50.294 178.944 50.504 178.543 50.924C178.151 51.344 177.955 51.9553 177.955 52.758V57H176.681V46.64H177.955V50.42C178.207 50.028 178.552 49.7247 178.991 49.51C179.439 49.2953 179.938 49.188 180.489 49.188ZM188.052 53.15C188.052 52.3567 188.211 51.666 188.528 51.078C188.845 50.4807 189.284 50.0187 189.844 49.692C190.413 49.3653 191.062 49.202 191.79 49.202C192.733 49.202 193.507 49.4307 194.114 49.888C194.73 50.3453 195.136 50.98 195.332 51.792H193.96C193.829 51.3253 193.573 50.9567 193.19 50.686C192.817 50.4153 192.35 50.28 191.79 50.28C191.062 50.28 190.474 50.532 190.026 51.036C189.578 51.5307 189.354 52.2353 189.354 53.15C189.354 54.074 189.578 54.788 190.026 55.292C190.474 55.796 191.062 56.048 191.79 56.048C192.35 56.048 192.817 55.9173 193.19 55.656C193.563 55.3947 193.82 55.0213 193.96 54.536H195.332C195.127 55.32 194.716 55.95 194.1 56.426C193.484 56.8927 192.714 57.126 191.79 57.126C191.062 57.126 190.413 56.9627 189.844 56.636C189.284 56.3093 188.845 55.8473 188.528 55.25C188.211 54.6527 188.052 53.9527 188.052 53.15ZM199.958 57.126C199.239 57.126 198.586 56.9627 197.998 56.636C197.419 56.3093 196.962 55.8473 196.626 55.25C196.299 54.6433 196.136 53.9433 196.136 53.15C196.136 52.366 196.304 51.6753 196.64 51.078C196.985 50.4713 197.452 50.0093 198.04 49.692C198.628 49.3653 199.286 49.202 200.014 49.202C200.742 49.202 201.4 49.3653 201.988 49.692C202.576 50.0093 203.038 50.4667 203.374 51.064C203.719 51.6613 203.892 52.3567 203.892 53.15C203.892 53.9433 203.715 54.6433 203.36 55.25C203.015 55.8473 202.543 56.3093 201.946 56.636C201.349 56.9627 200.686 57.126 199.958 57.126ZM199.958 56.006C200.415 56.006 200.845 55.8987 201.246 55.684C201.647 55.4693 201.969 55.1473 202.212 54.718C202.464 54.2887 202.59 53.766 202.59 53.15C202.59 52.534 202.469 52.0113 202.226 51.582C201.983 51.1527 201.666 50.8353 201.274 50.63C200.882 50.4153 200.457 50.308 200 50.308C199.533 50.308 199.104 50.4153 198.712 50.63C198.329 50.8353 198.021 51.1527 197.788 51.582C197.555 52.0113 197.438 52.534 197.438 53.15C197.438 53.7753 197.55 54.3027 197.774 54.732C198.007 55.1613 198.315 55.4833 198.698 55.698C199.081 55.9033 199.501 56.006 199.958 56.006ZM208.885 49.188C209.818 49.188 210.574 49.4727 211.153 50.042C211.732 50.602 212.021 51.414 212.021 52.478V57H210.761V52.66C210.761 51.8947 210.57 51.3113 210.187 50.91C209.804 50.4993 209.282 50.294 208.619 50.294C207.947 50.294 207.41 50.504 207.009 50.924C206.617 51.344 206.421 51.9553 206.421 52.758V57H205.147V49.328H206.421V50.42C206.673 50.028 207.014 49.7247 207.443 49.51C207.882 49.2953 208.362 49.188 208.885 49.188ZM215.236 50.378V54.9C215.236 55.2733 215.315 55.5393 215.474 55.698C215.633 55.8473 215.908 55.922 216.3 55.922H217.238V57H216.09C215.381 57 214.849 56.8367 214.494 56.51C214.139 56.1833 213.962 55.6467 213.962 54.9V50.378H212.968V49.328H213.962V47.396H215.236V49.328H217.238V50.378H215.236ZM219.636 50.574C219.86 50.1353 220.177 49.7947 220.588 49.552C221.008 49.3093 221.516 49.188 222.114 49.188V50.504H221.778C220.35 50.504 219.636 51.2787 219.636 52.828V57H218.362V49.328H219.636V50.574ZM222.688 53.136C222.688 52.352 222.847 51.666 223.164 51.078C223.482 50.4807 223.916 50.0187 224.466 49.692C225.026 49.3653 225.647 49.202 226.328 49.202C227 49.202 227.584 49.3467 228.078 49.636C228.573 49.9253 228.942 50.2893 229.184 50.728V49.328H230.472V57H229.184V55.572C228.932 56.02 228.554 56.3933 228.05 56.692C227.556 56.9813 226.977 57.126 226.314 57.126C225.633 57.126 225.017 56.958 224.466 56.622C223.916 56.286 223.482 55.8147 223.164 55.208C222.847 54.6013 222.688 53.9107 222.688 53.136ZM229.184 53.15C229.184 52.5713 229.068 52.0673 228.834 51.638C228.601 51.2087 228.284 50.882 227.882 50.658C227.49 50.4247 227.056 50.308 226.58 50.308C226.104 50.308 225.67 50.42 225.278 50.644C224.886 50.868 224.574 51.1947 224.34 51.624C224.107 52.0533 223.99 52.5573 223.99 53.136C223.99 53.724 224.107 54.2373 224.34 54.676C224.574 55.1053 224.886 55.4367 225.278 55.67C225.67 55.894 226.104 56.006 226.58 56.006C227.056 56.006 227.49 55.894 227.882 55.67C228.284 55.4367 228.601 55.1053 228.834 54.676C229.068 54.2373 229.184 53.7287 229.184 53.15ZM231.729 53.15C231.729 52.3567 231.888 51.666 232.205 51.078C232.523 50.4807 232.961 50.0187 233.521 49.692C234.091 49.3653 234.739 49.202 235.467 49.202C236.41 49.202 237.185 49.4307 237.791 49.888C238.407 50.3453 238.813 50.98 239.009 51.792H237.637C237.507 51.3253 237.25 50.9567 236.867 50.686C236.494 50.4153 236.027 50.28 235.467 50.28C234.739 50.28 234.151 50.532 233.703 51.036C233.255 51.5307 233.031 52.2353 233.031 53.15C233.031 54.074 233.255 54.788 233.703 55.292C234.151 55.796 234.739 56.048 235.467 56.048C236.027 56.048 236.494 55.9173 236.867 55.656C237.241 55.3947 237.497 55.0213 237.637 54.536H239.009C238.804 55.32 238.393 55.95 237.777 56.426C237.161 56.8927 236.391 57.126 235.467 57.126C234.739 57.126 234.091 56.9627 233.521 56.636C232.961 56.3093 232.523 55.8473 232.205 55.25C231.888 54.6527 231.729 53.9527 231.729 53.15ZM241.843 50.378V54.9C241.843 55.2733 241.923 55.5393 242.081 55.698C242.24 55.8473 242.515 55.922 242.907 55.922H243.845V57H242.697C241.988 57 241.456 56.8367 241.101 56.51C240.747 56.1833 240.569 55.6467 240.569 54.9V50.378H239.575V49.328H240.569V47.396H241.843V49.328H243.845V50.378H241.843ZM247.685 57.126C247.097 57.126 246.57 57.028 246.103 56.832C245.636 56.6267 245.268 56.3467 244.997 55.992C244.726 55.628 244.577 55.2127 244.549 54.746H245.865C245.902 55.1287 246.08 55.4413 246.397 55.684C246.724 55.9267 247.148 56.048 247.671 56.048C248.156 56.048 248.539 55.9407 248.819 55.726C249.099 55.5113 249.239 55.2407 249.239 54.914C249.239 54.578 249.09 54.3307 248.791 54.172C248.492 54.004 248.03 53.8407 247.405 53.682C246.836 53.5327 246.369 53.3833 246.005 53.234C245.65 53.0753 245.342 52.8467 245.081 52.548C244.829 52.24 244.703 51.8387 244.703 51.344C244.703 50.952 244.82 50.5927 245.053 50.266C245.286 49.9393 245.618 49.6827 246.047 49.496C246.476 49.3 246.966 49.202 247.517 49.202C248.366 49.202 249.052 49.4167 249.575 49.846C250.098 50.2753 250.378 50.8633 250.415 51.61H249.141C249.113 51.2087 248.95 50.8867 248.651 50.644C248.362 50.4013 247.97 50.28 247.475 50.28C247.018 50.28 246.654 50.378 246.383 50.574C246.112 50.77 245.977 51.0267 245.977 51.344C245.977 51.596 246.056 51.806 246.215 51.974C246.383 52.1327 246.588 52.2633 246.831 52.366C247.083 52.4593 247.428 52.5667 247.867 52.688C248.418 52.8373 248.866 52.9867 249.211 53.136C249.556 53.276 249.85 53.4907 250.093 53.78C250.345 54.0693 250.476 54.4473 250.485 54.914C250.485 55.334 250.368 55.712 250.135 56.048C249.902 56.384 249.57 56.65 249.141 56.846C248.721 57.0327 248.236 57.126 247.685 57.126ZM265.396 49.328L263.002 57H261.686L259.838 50.91L257.99 57H256.674L254.266 49.328H255.568L257.332 55.768L259.236 49.328H260.538L262.4 55.782L264.136 49.328H265.396ZM266.898 48.082C266.655 48.082 266.45 47.998 266.282 47.83C266.114 47.662 266.03 47.4567 266.03 47.214C266.03 46.9713 266.114 46.766 266.282 46.598C266.45 46.43 266.655 46.346 266.898 46.346C267.131 46.346 267.327 46.43 267.486 46.598C267.654 46.766 267.738 46.9713 267.738 47.214C267.738 47.4567 267.654 47.662 267.486 47.83C267.327 47.998 267.131 48.082 266.898 48.082ZM267.514 49.328V57H266.24V49.328H267.514ZM270.539 46.64V57H269.265V46.64H270.539ZM273.565 46.64V57H272.291V46.64H273.565ZM279.902 50.574C280.126 50.1353 280.444 49.7947 280.854 49.552C281.274 49.3093 281.783 49.188 282.38 49.188V50.504H282.044C280.616 50.504 279.902 51.2787 279.902 52.828V57H278.628V49.328H279.902V50.574ZM290.235 49.328V57H288.961V55.866C288.718 56.258 288.378 56.566 287.939 56.79C287.51 57.0047 287.034 57.112 286.511 57.112C285.914 57.112 285.377 56.9907 284.901 56.748C284.425 56.496 284.047 56.1227 283.767 55.628C283.496 55.1333 283.361 54.5313 283.361 53.822V49.328H284.621V53.654C284.621 54.41 284.812 54.9933 285.195 55.404C285.578 55.8053 286.1 56.006 286.763 56.006C287.444 56.006 287.981 55.796 288.373 55.376C288.765 54.956 288.961 54.3447 288.961 53.542V49.328H290.235ZM295.13 49.202C295.793 49.202 296.372 49.3467 296.866 49.636C297.37 49.9253 297.744 50.2893 297.986 50.728V49.328H299.274V57.168C299.274 57.868 299.125 58.4887 298.826 59.03C298.528 59.5807 298.098 60.01 297.538 60.318C296.988 60.626 296.344 60.78 295.606 60.78C294.598 60.78 293.758 60.542 293.086 60.066C292.414 59.59 292.018 58.9413 291.896 58.12H293.156C293.296 58.5867 293.586 58.96 294.024 59.24C294.463 59.5293 294.99 59.674 295.606 59.674C296.306 59.674 296.876 59.4547 297.314 59.016C297.762 58.5773 297.986 57.9613 297.986 57.168V55.558C297.734 56.006 297.361 56.3793 296.866 56.678C296.372 56.9767 295.793 57.126 295.13 57.126C294.449 57.126 293.828 56.958 293.268 56.622C292.718 56.286 292.284 55.8147 291.966 55.208C291.649 54.6013 291.49 53.9107 291.49 53.136C291.49 52.352 291.649 51.666 291.966 51.078C292.284 50.4807 292.718 50.0187 293.268 49.692C293.828 49.3653 294.449 49.202 295.13 49.202ZM297.986 53.15C297.986 52.5713 297.87 52.0673 297.636 51.638C297.403 51.2087 297.086 50.882 296.684 50.658C296.292 50.4247 295.858 50.308 295.382 50.308C294.906 50.308 294.472 50.42 294.08 50.644C293.688 50.868 293.376 51.1947 293.142 51.624C292.909 52.0533 292.792 52.5573 292.792 53.136C292.792 53.724 292.909 54.2373 293.142 54.676C293.376 55.1053 293.688 55.4367 294.08 55.67C294.472 55.894 294.906 56.006 295.382 56.006C295.858 56.006 296.292 55.894 296.684 55.67C297.086 55.4367 297.403 55.1053 297.636 54.676C297.87 54.2373 297.986 53.7287 297.986 53.15ZM98.352 71.742C98.604 71.3033 98.9773 70.9393 99.472 70.65C99.976 70.3513 100.559 70.202 101.222 70.202C101.903 70.202 102.519 70.3653 103.07 70.692C103.63 71.0187 104.069 71.4807 104.386 72.078C104.703 72.666 104.862 73.352 104.862 74.136C104.862 74.9107 104.703 75.6013 104.386 76.208C104.069 76.8147 103.63 77.286 103.07 77.622C102.519 77.958 101.903 78.126 101.222 78.126C100.569 78.126 99.99 77.9813 99.486 77.692C98.9913 77.3933 98.6133 77.0247 98.352 76.586V81.64H97.078V70.328H98.352V71.742ZM103.56 74.136C103.56 73.5573 103.443 73.0533 103.21 72.624C102.977 72.1947 102.659 71.868 102.258 71.644C101.866 71.42 101.432 71.308 100.956 71.308C100.489 71.308 100.055 71.4247 99.654 71.658C99.262 71.882 98.9447 72.2133 98.702 72.652C98.4687 73.0813 98.352 73.5807 98.352 74.15C98.352 74.7287 98.4687 75.2373 98.702 75.676C98.9447 76.1053 99.262 76.4367 99.654 76.67C100.055 76.894 100.489 77.006 100.956 77.006C101.432 77.006 101.866 76.894 102.258 76.67C102.659 76.4367 102.977 76.1053 103.21 75.676C103.443 75.2373 103.56 74.724 103.56 74.136ZM112.923 70.328V78H111.649V76.866C111.406 77.258 111.066 77.566 110.627 77.79C110.198 78.0047 109.722 78.112 109.199 78.112C108.602 78.112 108.065 77.9907 107.589 77.748C107.113 77.496 106.735 77.1227 106.455 76.628C106.184 76.1333 106.049 75.5313 106.049 74.822V70.328H107.309V74.654C107.309 75.41 107.5 75.9933 107.883 76.404C108.266 76.8053 108.788 77.006 109.451 77.006C110.132 77.006 110.669 76.796 111.061 76.376C111.453 75.956 111.649 75.3447 111.649 74.542V70.328H112.923ZM115.928 67.64V78H114.654V67.64H115.928ZM118.953 67.64V78H117.679V67.64H118.953Z" fill="#4E6C8E"/>
</g>
<defs>
<filter id="filter0_f_1339_2302" x="-321.866" y="-302.924" width="551.054" height="487.485" filterUnits="userSpaceOnUse" color-interpolation-filters="sRGB">
<feFlood flood-opacity="0" result="BackgroundImageFix"/>
<feBlend mode="normal" in="SourceGraphic" in2="BackgroundImageFix" result="shape"/>
<feGaussianBlur stdDeviation="63.25" result="effect1_foregroundBlur_1339_2302"/>
</filter>
<filter id="filter1_f_1339_2302" x="-116.081" y="-2.29972" width="378.339" height="306.863" filterUnits="userSpaceOnUse" color-interpolation-filters="sRGB">
<feFlood flood-opacity="0" result="BackgroundImageFix"/>
<feBlend mode="normal" in="SourceGraphic" in2="BackgroundImageFix" result="shape"/>
<feGaussianBlur stdDeviation="50.85" result="effect1_foregroundBlur_1339_2302"/>
</filter>
<filter id="filter2_bii_1339_2302" x="23.6473" y="22.7" width="37.1795" height="40.95" filterUnits="userSpaceOnUse" color-interpolation-filters="sRGB">
<feFlood flood-opacity="0" result="BackgroundImageFix"/>
<feGaussianBlur in="BackgroundImageFix" stdDeviation="1.4625"/>
<feComposite in2="SourceAlpha" operator="in" result="effect1_backgroundBlur_1339_2302"/>
<feBlend mode="normal" in="SourceGraphic" in2="effect1_backgroundBlur_1339_2302" result="shape"/>
<feColorMatrix in="SourceAlpha" type="matrix" values="0 0 0 0 0 0 0 0 0 0 0 0 0 0 0 0 0 0 127 0" result="hardAlpha"/>
<feOffset/>
<feGaussianBlur stdDeviation="1.4625"/>
<feComposite in2="hardAlpha" operator="arithmetic" k2="-1" k3="1"/>
<feColorMatrix type="matrix" values="0 0 0 0 1 0 0 0 0 1 0 0 0 0 1 0 0 0 1 0"/>
<feBlend mode="normal" in2="shape" result="effect2_innerShadow_1339_2302"/>
<feColorMatrix in="SourceAlpha" type="matrix" values="0 0 0 0 0 0 0 0 0 0 0 0 0 0 0 0 0 0 127 0" result="hardAlpha"/>
<feOffset dy="1.2"/>
<feGaussianBlur stdDeviation="1.17"/>
<feComposite in2="hardAlpha" operator="arithmetic" k2="-1" k3="1"/>
<feColorMatrix type="matrix" values="0 0 0 0 1 0 0 0 0 1 0 0 0 0 1 0 0 0 0.76 0"/>
<feBlend mode="normal" in2="effect2_innerShadow_1339_2302" result="effect3_innerShadow_1339_2302"/>
</filter>
<filter id="filter3_bii_1339_2302" x="20.1303" y="49.1264" width="26.4036" height="26.4036" filterUnits="userSpaceOnUse" color-interpolation-filters="sRGB">
<feFlood flood-opacity="0" result="BackgroundImageFix"/>
<feGaussianBlur in="BackgroundImageFix" stdDeviation="0.982677"/>
<feComposite in2="SourceAlpha" operator="in" result="effect1_backgroundBlur_1339_2302"/>
<feBlend mode="normal" in="SourceGraphic" in2="effect1_backgroundBlur_1339_2302" result="shape"/>
<feColorMatrix in="SourceAlpha" type="matrix" values="0 0 0 0 0 0 0 0 0 0 0 0 0 0 0 0 0 0 127 0" result="hardAlpha"/>
<feOffset/>
<feGaussianBlur stdDeviation="0.982677"/>
<feComposite in2="hardAlpha" operator="arithmetic" k2="-1" k3="1"/>
<feColorMatrix type="matrix" values="0 0 0 0 1 0 0 0 0 1 0 0 0 0 1 0 0 0 1 0"/>
<feBlend mode="normal" in2="shape" result="effect2_innerShadow_1339_2302"/>
<feColorMatrix in="SourceAlpha" type="matrix" values="0 0 0 0 0 0 0 0 0 0 0 0 0 0 0 0 0 0 127 0" result="hardAlpha"/>
<feOffset dy="1.96535"/>
<feGaussianBlur stdDeviation="1.96535"/>
<feComposite in2="hardAlpha" operator="arithmetic" k2="-1" k3="1"/>
<feColorMatrix type="matrix" values="0 0 0 0 1 0 0 0 0 1 0 0 0 0 1 0 0 0 1 0"/>
<feBlend mode="normal" in2="effect2_innerShadow_1339_2302" result="effect3_innerShadow_1339_2302"/>
</filter>
<linearGradient id="paint0_linear_1339_2302" x1="247.938" y1="201.313" x2="-69.3637" y2="-218.197" gradientUnits="userSpaceOnUse">
<stop offset="0.0244264" stop-color="#BE44E3"/>
<stop offset="0.398511" stop-color="#5C44E3"/>
<stop offset="1" stop-color="#0D67FE"/>
</linearGradient>
<linearGradient id="paint1_linear_1339_2302" x1="4.75768" y1="194.192" x2="184.171" y2="203.653" gradientUnits="userSpaceOnUse">
<stop offset="0.0417483" stop-color="#B6D2FF"/>
<stop offset="0.358655" stop-color="#0D67FE"/>
<stop offset="1" stop-color="#5C44E3"/>
</linearGradient>
<linearGradient id="paint2_linear_1339_2302" x1="51.4563" y1="30.4213" x2="27.1944" y2="58.6239" gradientUnits="userSpaceOnUse">
<stop stop-color="#7A62FF"/>
<stop offset="1" stop-color="#80D5FF"/>
</linearGradient>
<clipPath id="clip0_1339_2302">
<rect width="327" height="100" rx="16" fill="white"/>
</clipPath>
<clipPath id="clip1_1339_2302">
<rect width="80" height="100" fill="white"/>
</clipPath>
<clipPath id="clip2_1339_2302">
<rect width="48" height="48" fill="white" transform="translate(16 26)"/>
</clipPath>
</defs>
</svg>
