<svg width="25" height="25" viewBox="0 0 25 25" fill="none" xmlns="http://www.w3.org/2000/svg">
<path d="M14.1159 18.1956V19.9887L12.5526 20.9082L11.0354 19.9887V18.1956L12.5526 19.1151L14.1159 18.1956ZM5.74805 11.9887L7.26529 12.9082V15.9887L9.88599 17.5519V19.345L5.74805 16.9082V11.9887ZM19.3573 11.9887V16.9082L15.1733 19.345V17.5519L17.794 15.9887V12.9082L19.3573 11.9887ZM15.1733 9.55186L16.7365 10.4714V12.2645L14.1159 13.8277V16.9542L12.5986 17.8737L11.0814 16.9542V13.8277L8.36874 12.2645V10.4714L9.93197 9.55186L12.5526 11.1151L15.1733 9.55186ZM8.36874 13.5519L9.88599 14.4714V16.2645L8.36874 15.345V13.5519ZM16.7365 13.5519V15.345L15.2193 16.2645V14.4714L16.7365 13.5519ZM7.26529 7.98866L8.82851 8.9082L7.26529 9.82775V11.6208L5.74805 10.7013V8.9082L7.26529 7.98866ZM17.84 7.98866L19.4032 8.9082V10.7013L17.84 11.6208V9.82775L16.3227 8.9082L17.84 7.98866ZM12.5526 7.98866L14.1159 8.9082L12.5526 9.82775L11.0354 8.9082L12.5526 7.98866ZM12.5526 4.9082L16.7365 7.34498L15.2193 8.26452L12.5986 6.7013L9.93197 8.26452L8.41471 7.34498L12.5526 4.9082Z" fill="#F3BA2F"/>
</svg>
