<svg width="18" height="18" viewBox="0 0 18 18" fill="none" xmlns="http://www.w3.org/2000/svg">
<g clip-path="url(#clip0_1545_1166)">
<path d="M9.4043 17.3848C14.0987 17.3848 17.9043 13.5792 17.9043 8.88477C17.9043 4.19035 14.0987 0.384766 9.4043 0.384766C4.70988 0.384766 0.904297 4.19035 0.904297 8.88477C0.904297 13.5792 4.70988 17.3848 9.4043 17.3848Z" fill="#0088CC"/>
<path fill-rule="evenodd" clip-rule="evenodd" d="M7.0363 6H11.8024C11.9845 6 12.1363 6.03036 12.3184 6.12143C12.5309 6.2125 12.6524 6.36429 12.7131 6.48571C12.7131 6.48571 12.7131 6.51607 12.7434 6.51607C12.8345 6.66786 12.8952 6.85 12.8952 7.0625C12.8952 7.24464 12.8649 7.42679 12.7434 7.60893L9.73809 12.7696C9.67737 12.8911 9.55594 12.9518 9.40416 12.9518C9.28273 12.9518 9.1613 12.8911 9.07023 12.7696L6.12559 7.60893C6.06487 7.4875 5.94344 7.33571 5.94344 7.09286C5.91309 6.88036 5.9738 6.69821 6.06487 6.51607C6.15594 6.33393 6.30773 6.18214 6.52023 6.12143C6.70237 6 6.91487 6 7.0363 6ZM9.03987 6.72857H7.0363C6.91487 6.72857 6.85416 6.72857 6.8238 6.75893C6.76309 6.78929 6.73273 6.81964 6.70237 6.88036C6.67202 6.91071 6.67201 6.97143 6.67201 7.03214C6.67201 7.0625 6.70237 7.09286 6.76309 7.21429L9.03987 11.1607V6.72857ZM9.76844 6.72857V11.1911L12.0756 7.21429C12.1059 7.15357 12.1059 7.09286 12.1059 7.03214C12.1059 6.97143 12.1059 6.91071 12.0756 6.88036C12.0452 6.85 12.0452 6.81964 12.0149 6.81964L11.9845 6.78929C11.9238 6.75893 11.8631 6.75893 11.772 6.75893H9.76844V6.72857Z" fill="white"/>
</g>
<defs>
<clipPath id="clip0_1545_1166">
<rect width="17" height="17" fill="white" transform="translate(0.904297 0.384766)"/>
</clipPath>
</defs>
</svg>
