<svg width="448" height="214" viewBox="0 0 448 214" fill="none" xmlns="http://www.w3.org/2000/svg">
<g opacity="0.88">
<path d="M12.9428 31.158V31.158C9.48054 31.158 7.74943 31.158 6.3839 30.5923C4.5632 29.8382 3.11666 28.3916 2.3625 26.5709C1.79688 25.2054 1.79688 23.4743 1.79688 20.0121V12.5815C1.79688 9.11925 1.79688 7.38814 2.3625 6.02261C3.11666 4.2019 4.5632 2.75536 6.3839 2.0012C7.74943 1.43558 9.48054 1.43558 12.9428 1.43558V1.43558" stroke="#317CFF" stroke-width="2.78647"/>
<path d="M39.9307 8.23721V10.7562H35.7844V23.7969H32.6636V10.7562H28.5173V8.23721H39.9307ZM48.494 11.2689C49.4303 11.2689 50.2625 11.4769 50.9907 11.8931C51.7189 12.2943 52.2836 12.8962 52.6849 13.6987C53.101 14.4863 53.3091 15.4375 53.3091 16.552V23.7969H50.1882V16.9756C50.1882 15.9947 49.943 15.2443 49.4526 14.7241C48.9622 14.1891 48.2934 13.9216 47.4463 13.9216C46.5844 13.9216 45.9008 14.1891 45.3955 14.7241C44.9051 15.2443 44.6599 15.9947 44.6599 16.9756V23.7969H41.539V7.30095H44.6599V12.9854C45.0611 12.4504 45.5961 12.0342 46.2649 11.737C46.9336 11.4249 47.6767 11.2689 48.494 11.2689ZM67.0884 17.3545C67.0884 17.8004 67.0586 18.2016 66.9992 18.5583H57.971C58.0453 19.45 58.3574 20.1485 58.9073 20.6537C59.4571 21.159 60.1333 21.4117 60.9358 21.4117C62.095 21.4117 62.9198 20.9138 63.4102 19.9181H66.7763C66.4196 21.107 65.736 22.0878 64.7254 22.8606C63.7149 23.6185 62.474 23.9975 61.0027 23.9975C59.8138 23.9975 58.7438 23.7374 57.7927 23.2173C56.8564 22.6823 56.1208 21.9318 55.5858 20.9658C55.0656 19.9998 54.8056 18.8853 54.8056 17.6221C54.8056 16.344 55.0656 15.222 55.5858 14.256C56.1059 13.29 56.8341 12.547 57.7704 12.0268C58.7066 11.5067 59.7841 11.2466 61.0027 11.2466C62.1767 11.2466 63.2244 11.4992 64.1458 12.0045C65.0821 12.5098 65.8029 13.2306 66.3081 14.1668C66.8283 15.0882 67.0884 16.1508 67.0884 17.3545ZM63.856 16.4629C63.8412 15.6604 63.5514 15.0213 62.9867 14.5458C62.4219 14.0554 61.7309 13.8102 60.9135 13.8102C60.1407 13.8102 59.4869 14.0479 58.9518 14.5235C58.4317 14.9842 58.1122 15.6307 57.9933 16.4629H63.856ZM82.8814 20.8321H76.6843L75.6588 23.7969H72.382L77.9772 8.21492H81.6108L87.206 23.7969H83.9068L82.8814 20.8321ZM82.0343 18.3354L79.7828 11.8262L77.5314 18.3354H82.0343ZM91.7495 8.23721V23.7969H88.6287V8.23721H91.7495ZM103.66 14.5235V17.1539H94.2087V14.5235H103.66ZM109.613 13.2306C110.014 12.6658 110.564 12.1977 111.262 11.8262C111.975 11.4398 112.785 11.2466 113.692 11.2466C114.747 11.2466 115.698 11.5067 116.545 12.0268C117.407 12.547 118.083 13.29 118.574 14.256C119.079 15.2071 119.332 16.3143 119.332 17.5775C119.332 18.8407 119.079 19.9627 118.574 20.9435C118.083 21.9095 117.407 22.66 116.545 23.195C115.698 23.73 114.747 23.9975 113.692 23.9975C112.785 23.9975 111.983 23.8117 111.284 23.4402C110.601 23.0687 110.044 22.6005 109.613 22.0358V29.6819H106.492V11.4472H109.613V13.2306ZM116.144 17.5775C116.144 16.8344 115.988 16.1954 115.676 15.6604C115.379 15.1105 114.977 14.6944 114.472 14.412C113.982 14.1297 113.447 13.9885 112.867 13.9885C112.302 13.9885 111.767 14.1371 111.262 14.4343C110.772 14.7167 110.37 15.1328 110.058 15.6827C109.761 16.2325 109.613 16.879 109.613 17.6221C109.613 18.3651 109.761 19.0116 110.058 19.5614C110.37 20.1113 110.772 20.5348 111.262 20.8321C111.767 21.1144 112.302 21.2556 112.867 21.2556C113.447 21.2556 113.982 21.107 114.472 20.8098C114.977 20.5126 115.379 20.089 115.676 19.5391C115.988 18.9893 116.144 18.3354 116.144 17.5775ZM126.415 23.9975C125.226 23.9975 124.156 23.7374 123.205 23.2173C122.253 22.6823 121.503 21.9318 120.953 20.9658C120.418 19.9998 120.151 18.8853 120.151 17.6221C120.151 16.3588 120.426 15.2443 120.975 14.2783C121.54 13.3123 122.306 12.5692 123.271 12.0491C124.237 11.5141 125.315 11.2466 126.504 11.2466C127.693 11.2466 128.77 11.5141 129.736 12.0491C130.702 12.5692 131.46 13.3123 132.01 14.2783C132.575 15.2443 132.857 16.3588 132.857 17.6221C132.857 18.8853 132.567 19.9998 131.988 20.9658C131.423 21.9318 130.65 22.6823 129.669 23.2173C128.703 23.7374 127.618 23.9975 126.415 23.9975ZM126.415 21.2779C126.979 21.2779 127.507 21.1442 127.997 20.8767C128.503 20.5943 128.904 20.1782 129.201 19.6283C129.498 19.0784 129.647 18.4097 129.647 17.6221C129.647 16.448 129.335 15.5489 128.711 14.9247C128.101 14.2857 127.351 13.9662 126.459 13.9662C125.568 13.9662 124.817 14.2857 124.208 14.9247C123.613 15.5489 123.316 16.448 123.316 17.6221C123.316 18.7961 123.606 19.7026 124.185 20.3416C124.78 20.9658 125.523 21.2779 126.415 21.2779ZM151.598 11.4472L147.986 23.7969H144.62L142.369 15.17L140.117 23.7969H136.729L133.095 11.4472H136.261L138.445 20.8544L140.808 11.4472H144.108L146.426 20.8321L148.61 11.4472H151.598ZM164.098 17.3545C164.098 17.8004 164.068 18.2016 164.009 18.5583H154.98C155.055 19.45 155.367 20.1485 155.917 20.6537C156.466 21.159 157.143 21.4117 157.945 21.4117C159.104 21.4117 159.929 20.9138 160.42 19.9181H163.786C163.429 21.107 162.745 22.0878 161.735 22.8606C160.724 23.6185 159.483 23.9975 158.012 23.9975C156.823 23.9975 155.753 23.7374 154.802 23.2173C153.866 22.6823 153.13 21.9318 152.595 20.9658C152.075 19.9998 151.815 18.8853 151.815 17.6221C151.815 16.344 152.075 15.222 152.595 14.256C153.115 13.29 153.843 12.547 154.78 12.0268C155.716 11.5067 156.793 11.2466 158.012 11.2466C159.186 11.2466 160.234 11.4992 161.155 12.0045C162.091 12.5098 162.812 13.2306 163.317 14.1668C163.838 15.0882 164.098 16.1508 164.098 17.3545ZM160.865 16.4629C160.851 15.6604 160.561 15.0213 159.996 14.5458C159.431 14.0554 158.74 13.8102 157.923 13.8102C157.15 13.8102 156.496 14.0479 155.961 14.5235C155.441 14.9842 155.122 15.6307 155.003 16.4629H160.865ZM168.828 13.3643C169.229 12.7104 169.749 12.1977 170.388 11.8262C171.042 11.4547 171.785 11.2689 172.617 11.2689V14.5458H171.793C170.812 14.5458 170.069 14.7761 169.563 15.2368C169.073 15.6975 168.828 16.5 168.828 17.6443V23.7969H165.707V11.4472H168.828V13.3643ZM185.531 17.3545C185.531 17.8004 185.501 18.2016 185.442 18.5583H176.414C176.488 19.45 176.8 20.1485 177.35 20.6537C177.9 21.159 178.576 21.4117 179.378 21.4117C180.538 21.4117 181.362 20.9138 181.853 19.9181H185.219C184.862 21.107 184.179 22.0878 183.168 22.8606C182.157 23.6185 180.916 23.9975 179.445 23.9975C178.256 23.9975 177.186 23.7374 176.235 23.2173C175.299 22.6823 174.563 21.9318 174.028 20.9658C173.508 19.9998 173.248 18.8853 173.248 17.6221C173.248 16.344 173.508 15.222 174.028 14.256C174.548 13.29 175.277 12.547 176.213 12.0268C177.149 11.5067 178.227 11.2466 179.445 11.2466C180.619 11.2466 181.667 11.4992 182.588 12.0045C183.525 12.5098 184.245 13.2306 184.751 14.1668C185.271 15.0882 185.531 16.1508 185.531 17.3545ZM182.299 16.4629C182.284 15.6604 181.994 15.0213 181.429 14.5458C180.864 14.0554 180.173 13.8102 179.356 13.8102C178.583 13.8102 177.929 14.0479 177.394 14.5235C176.874 14.9842 176.555 15.6307 176.436 16.4629H182.299ZM186.338 17.5775C186.338 16.3291 186.583 15.222 187.073 14.256C187.578 13.29 188.262 12.547 189.124 12.0268C189.986 11.5067 190.945 11.2466 192 11.2466C192.802 11.2466 193.568 11.4249 194.296 11.7816C195.024 12.1234 195.604 12.5841 196.035 13.1637V7.30095H199.2V23.7969H196.035V21.9689C195.648 22.5783 195.106 23.0687 194.407 23.4402C193.709 23.8117 192.899 23.9975 191.977 23.9975C190.937 23.9975 189.986 23.73 189.124 23.195C188.262 22.66 187.578 21.9095 187.073 20.9435C186.583 19.9627 186.338 18.8407 186.338 17.5775ZM196.057 17.6221C196.057 16.8641 195.908 16.2177 195.611 15.6827C195.314 15.1328 194.912 14.7167 194.407 14.4343C193.902 14.1371 193.359 13.9885 192.78 13.9885C192.2 13.9885 191.665 14.1297 191.175 14.412C190.684 14.6944 190.283 15.1105 189.971 15.6604C189.674 16.1954 189.525 16.8344 189.525 17.5775C189.525 18.3205 189.674 18.9744 189.971 19.5391C190.283 20.089 190.684 20.5126 191.175 20.8098C191.68 21.107 192.215 21.2556 192.78 21.2556C193.359 21.2556 193.902 21.1144 194.407 20.8321C194.912 20.5348 195.314 20.1187 195.611 19.5837C195.908 19.0339 196.057 18.38 196.057 17.6221Z" fill="#317CFF"/>
<path d="M215.665 1.43579V1.43579C219.127 1.43579 220.858 1.43579 222.224 2.00141C224.045 2.75558 225.491 4.20211 226.245 6.02281C226.811 7.38834 226.811 9.11946 226.811 12.5817L226.811 20.0123C226.811 23.4745 226.811 25.2056 226.245 26.5712C225.491 28.3918 224.045 29.8384 222.224 30.5925C220.858 31.1582 219.127 31.1582 215.665 31.1582V31.1582" stroke="#317CFF" stroke-width="2.78647"/>
</g>
<path d="M32.8939 97.5779C35.5244 98.0683 37.6867 99.3835 39.3808 101.524C41.075 103.664 41.9221 106.116 41.9221 108.88C41.9221 111.377 41.2979 113.583 40.0496 115.501C38.8458 117.373 37.0848 118.844 34.7664 119.914C32.4481 120.984 29.7062 121.519 26.5408 121.519H6.41128V74.8403H25.6714C28.8368 74.8403 31.5564 75.353 33.8302 76.3784C36.1485 77.4038 37.8873 78.8305 39.0465 80.6584C40.2502 82.4864 40.8521 84.5595 40.8521 86.8779C40.8521 89.5974 40.1165 91.8712 38.6452 93.6991C37.2185 95.5271 35.3014 96.82 32.8939 97.5779ZM15.7738 94.1004H24.3339C26.5631 94.1004 28.2795 93.61 29.4833 92.6291C30.687 91.6037 31.2889 90.1547 31.2889 88.2822C31.2889 86.4097 30.687 84.9608 29.4833 83.9353C28.2795 82.9099 26.5631 82.3972 24.3339 82.3972H15.7738V94.1004ZM25.2033 113.895C27.477 113.895 29.2381 113.36 30.4864 112.29C31.7793 111.22 32.4258 109.705 32.4258 107.743C32.4258 105.737 31.757 104.176 30.4195 103.062C29.082 101.903 27.2764 101.323 25.0026 101.323H15.7738V113.895H25.2033ZM56.7402 72.0315V121.519H47.3777V72.0315H56.7402ZM80.4355 122.121C76.8688 122.121 73.6588 121.341 70.8055 119.781C67.9521 118.176 65.7006 115.924 64.051 113.026C62.446 110.128 61.6435 106.784 61.6435 102.995C61.6435 99.2052 62.4683 95.8614 64.1179 92.9635C65.8121 90.0656 68.1081 87.8364 71.0061 86.276C73.904 84.671 77.1363 83.8685 80.703 83.8685C84.2697 83.8685 87.502 84.671 90.3999 86.276C93.2979 87.8364 95.5716 90.0656 97.2212 92.9635C98.9154 95.8614 99.7625 99.2052 99.7625 102.995C99.7625 106.784 98.8931 110.128 97.1543 113.026C95.4602 115.924 93.1418 118.176 90.1993 119.781C87.3014 121.341 84.0468 122.121 80.4355 122.121ZM80.4355 113.962C82.1297 113.962 83.7124 113.561 85.1837 112.759C86.6995 111.912 87.9033 110.663 88.7949 109.014C89.6866 107.364 90.1324 105.358 90.1324 102.995C90.1324 99.4727 89.1962 96.7754 87.3237 94.9029C85.4957 92.9858 83.2443 92.0273 80.5693 92.0273C77.8942 92.0273 75.6428 92.9858 73.8148 94.9029C72.0315 96.7754 71.1398 99.4727 71.1398 102.995C71.1398 106.517 72.0092 109.237 73.748 111.154C75.5313 113.026 77.7605 113.962 80.4355 113.962ZM102.216 102.995C102.216 99.1606 102.997 95.8169 104.557 92.9635C106.118 90.0656 108.28 87.8364 111.044 86.276C113.808 84.671 116.974 83.8685 120.54 83.8685C125.132 83.8685 128.922 85.0276 131.909 87.346C134.941 89.6197 136.969 92.8298 137.995 96.976H127.897C127.362 95.371 126.448 94.1227 125.155 93.231C123.906 92.2948 122.346 91.8266 120.473 91.8266C117.798 91.8266 115.681 92.8075 114.12 94.7691C112.56 96.6862 111.78 99.4281 111.78 102.995C111.78 106.517 112.56 109.259 114.12 111.22C115.681 113.138 117.798 114.096 120.473 114.096C124.263 114.096 126.737 112.402 127.897 109.014H137.995C136.969 113.026 134.941 116.214 131.909 118.577C128.877 120.94 125.088 122.121 120.54 122.121C116.974 122.121 113.808 121.341 111.044 119.781C108.28 118.176 106.118 115.946 104.557 113.093C102.997 110.195 102.216 106.829 102.216 102.995ZM164.783 121.519L152.21 105.737V121.519H142.847V72.0315H152.21V100.186L164.649 84.4703H176.82L160.503 103.062L176.954 121.519H164.783ZM177.488 102.995C177.488 99.1606 178.268 95.8169 179.828 92.9635C181.389 90.0656 183.551 87.8364 186.315 86.276C189.08 84.671 192.245 83.8685 195.812 83.8685C200.404 83.8685 204.193 85.0276 207.181 87.346C210.212 89.6197 212.241 92.8298 213.266 96.976H203.168C202.633 95.371 201.719 94.1227 200.426 93.231C199.178 92.2948 197.617 91.8266 195.745 91.8266C193.07 91.8266 190.952 92.8075 189.392 94.7691C187.831 96.6862 187.051 99.4281 187.051 102.995C187.051 106.517 187.831 109.259 189.392 111.22C190.952 113.138 193.07 114.096 195.745 114.096C199.534 114.096 202.009 112.402 203.168 109.014H213.266C212.241 113.026 210.212 116.214 207.181 118.577C204.149 120.94 200.359 122.121 195.812 122.121C192.245 122.121 189.08 121.341 186.315 119.781C183.551 118.176 181.389 115.946 179.828 113.093C178.268 110.195 177.488 106.829 177.488 102.995ZM238.984 83.9353C241.793 83.9353 244.289 84.5595 246.474 85.8078C248.659 87.0116 250.353 88.8172 251.556 91.2247C252.805 93.5877 253.429 96.441 253.429 99.7848V121.519H244.066V101.055C244.066 98.1129 243.331 95.8614 241.86 94.301C240.388 92.696 238.382 91.8935 235.841 91.8935C233.255 91.8935 231.204 92.696 229.688 94.301C228.217 95.8614 227.481 98.1129 227.481 101.055V121.519H218.119V72.0315H227.481V89.0847C228.685 87.4797 230.29 86.2314 232.296 85.3397C234.303 84.4035 236.532 83.9353 238.984 83.9353ZM257.919 102.861C257.919 99.116 258.654 95.7946 260.125 92.8966C261.641 89.9987 263.67 87.7695 266.211 86.2091C268.797 84.6487 271.673 83.8685 274.838 83.8685C277.602 83.8685 280.01 84.4258 282.061 85.5403C284.156 86.6549 285.828 88.0593 287.076 89.7535V84.4703H296.506V121.519H287.076V116.102C285.872 117.841 284.201 119.29 282.061 120.449C279.965 121.564 277.535 122.121 274.771 122.121C271.65 122.121 268.797 121.319 266.211 119.714C263.67 118.109 261.641 115.857 260.125 112.959C258.654 110.017 257.919 106.651 257.919 102.861ZM287.076 102.995C287.076 100.721 286.63 98.7817 285.739 97.1767C284.847 95.5271 283.643 94.2787 282.127 93.4316C280.612 92.54 278.984 92.0941 277.246 92.0941C275.507 92.0941 273.902 92.5177 272.43 93.3648C270.959 94.2118 269.755 95.4602 268.819 97.1098C267.928 98.7148 267.482 100.632 267.482 102.861C267.482 105.09 267.928 107.052 268.819 108.746C269.755 110.396 270.959 111.666 272.43 112.558C273.946 113.45 275.551 113.895 277.246 113.895C278.984 113.895 280.612 113.472 282.127 112.625C283.643 111.733 284.847 110.485 285.739 108.88C286.63 107.23 287.076 105.269 287.076 102.995ZM308.392 80.0566C306.742 80.0566 305.36 79.5439 304.245 78.5184C303.175 77.4484 302.64 76.1332 302.64 74.5728C302.64 73.0124 303.175 71.7194 304.245 70.694C305.36 69.624 306.742 69.089 308.392 69.089C310.041 69.089 311.401 69.624 312.471 70.694C313.586 71.7194 314.143 73.0124 314.143 74.5728C314.143 76.1332 313.586 77.4484 312.471 78.5184C311.401 79.5439 310.041 80.0566 308.392 80.0566ZM313.006 84.4703V121.519H303.644V84.4703H313.006ZM340.781 83.9353C345.195 83.9353 348.761 85.3397 351.481 88.1485C354.2 90.9127 355.56 94.7914 355.56 99.7848V121.519H346.198V101.055C346.198 98.1129 345.462 95.8614 343.991 94.301C342.52 92.696 340.513 91.8935 337.972 91.8935C335.386 91.8935 333.335 92.696 331.819 94.301C330.348 95.8614 329.613 98.1129 329.613 101.055V121.519H320.25V84.4703H329.613V89.0847C330.861 87.4797 332.444 86.2314 334.361 85.3397C336.322 84.4035 338.462 83.9353 340.781 83.9353ZM22.5282 195.987C19.2736 195.987 16.3311 195.43 13.7007 194.316C11.1148 193.201 9.064 191.596 7.54816 189.501C6.03231 187.405 5.2521 184.931 5.20752 182.077H15.2388C15.3726 183.994 16.0413 185.51 17.2451 186.625C18.4934 187.739 20.1876 188.297 22.3276 188.297C24.5122 188.297 26.2287 187.784 27.477 186.759C28.7254 185.689 29.3495 184.307 29.3495 182.612C29.3495 181.23 28.926 180.093 28.0789 179.202C27.2318 178.31 26.1618 177.619 24.8689 177.129C23.6205 176.594 21.8818 176.014 19.6526 175.39C16.6209 174.498 14.1465 173.629 12.2294 172.782C10.3569 171.89 8.72962 170.575 7.34753 168.836C6.01002 167.053 5.34127 164.69 5.34127 161.747C5.34127 158.983 6.03231 156.576 7.41441 154.525C8.7965 152.474 10.7359 150.913 13.2326 149.843C15.7292 148.729 18.5826 148.172 21.7926 148.172C26.6076 148.172 30.5087 149.353 33.4958 151.716C36.5275 154.034 38.1994 157.289 38.5114 161.48H28.2126C28.1235 159.875 27.4324 158.56 26.1395 157.534C24.8912 156.464 23.2193 155.929 21.1239 155.929C19.2959 155.929 17.8247 156.397 16.7101 157.333C15.6401 158.27 15.1051 159.63 15.1051 161.413C15.1051 162.661 15.5063 163.709 16.3088 164.556C17.1559 165.358 18.1813 166.027 19.3851 166.562C20.6334 167.053 22.3722 167.632 24.6014 168.301C27.6331 169.193 30.1074 170.084 32.0245 170.976C33.9416 171.868 35.5912 173.205 36.9733 174.989C38.3554 176.772 39.0465 179.113 39.0465 182.01C39.0465 184.507 38.4 186.825 37.1071 188.966C35.8141 191.106 33.9193 192.822 31.4227 194.115C28.926 195.363 25.9612 195.987 22.5282 195.987ZM80.133 158.47V195.519H70.7036V190.838C69.4998 192.443 67.9171 193.714 65.9554 194.65C64.0383 195.542 61.9429 195.987 59.6691 195.987C56.7712 195.987 54.2077 195.386 51.9785 194.182C49.7493 192.933 47.9882 191.128 46.6953 188.765C45.447 186.357 44.8228 183.504 44.8228 180.205V158.47H54.1854V178.867C54.1854 181.81 54.921 184.084 56.3922 185.689C57.8635 187.249 59.8698 188.029 62.411 188.029C64.9969 188.029 67.0254 187.249 68.4967 185.689C69.9679 184.084 70.7036 181.81 70.7036 178.867V158.47H80.133ZM96.727 163.82C97.9307 162.126 99.5803 160.722 101.676 159.607C103.816 158.448 106.246 157.868 108.965 157.868C112.131 157.868 114.984 158.649 117.525 160.209C120.111 161.77 122.14 163.999 123.611 166.897C125.127 169.75 125.885 173.071 125.885 176.861C125.885 180.651 125.127 184.017 123.611 186.959C122.14 189.857 120.111 192.109 117.525 193.714C114.984 195.319 112.131 196.121 108.965 196.121C106.246 196.121 103.838 195.564 101.743 194.449C99.6918 193.335 98.0199 191.93 96.727 190.236V213.174H87.3644V158.47H96.727V163.82ZM116.321 176.861C116.321 174.632 115.853 172.715 114.917 171.11C114.025 169.46 112.822 168.212 111.306 167.365C109.835 166.518 108.23 166.094 106.491 166.094C104.797 166.094 103.192 166.54 101.676 167.432C100.204 168.279 99.0007 169.527 98.0645 171.177C97.1728 172.826 96.727 174.766 96.727 176.995C96.727 179.224 97.1728 181.163 98.0645 182.813C99.0007 184.463 100.204 185.733 101.676 186.625C103.192 187.472 104.797 187.895 106.491 187.895C108.23 187.895 109.835 187.45 111.306 186.558C112.822 185.666 114.025 184.396 114.917 182.746C115.853 181.097 116.321 179.135 116.321 176.861ZM165.123 176.192C165.123 177.53 165.034 178.734 164.855 179.804H137.771C137.994 182.479 138.93 184.574 140.579 186.09C142.229 187.606 144.258 188.364 146.665 188.364C150.143 188.364 152.617 186.87 154.088 183.883H164.186C163.116 187.45 161.066 190.392 158.034 192.711C155.002 194.984 151.28 196.121 146.866 196.121C143.299 196.121 140.089 195.341 137.236 193.781C134.427 192.176 132.22 189.924 130.615 187.026C129.055 184.128 128.274 180.784 128.274 176.995C128.274 173.161 129.055 169.795 130.615 166.897C132.175 163.999 134.36 161.77 137.169 160.209C139.978 158.649 143.21 157.868 146.866 157.868C150.388 157.868 153.531 158.626 156.295 160.142C159.104 161.658 161.266 163.82 162.782 166.629C164.342 169.393 165.123 172.581 165.123 176.192ZM155.426 173.517C155.381 171.11 154.512 169.193 152.818 167.766C151.123 166.295 149.05 165.559 146.598 165.559C144.28 165.559 142.318 166.272 140.713 167.699C139.153 169.081 138.194 171.021 137.838 173.517H155.426ZM179.313 164.222C180.517 162.26 182.077 160.722 183.994 159.607C185.956 158.493 188.185 157.935 190.682 157.935V167.766H188.207C185.265 167.766 183.036 168.457 181.52 169.839C180.048 171.221 179.313 173.629 179.313 177.062V195.519H169.95V158.47H179.313V164.222ZM240.676 148.84V156.397H228.237V195.519H218.875V156.397H206.436V148.84H240.676ZM261.952 196.121C258.386 196.121 255.176 195.341 252.322 193.781C249.469 192.176 247.218 189.924 245.568 187.026C243.963 184.128 243.16 180.784 243.16 176.995C243.16 173.205 243.985 169.861 245.635 166.964C247.329 164.066 249.625 161.836 252.523 160.276C255.421 158.671 258.653 157.868 262.22 157.868C265.787 157.868 269.019 158.671 271.917 160.276C274.815 161.836 277.089 164.066 278.738 166.964C280.432 169.861 281.279 173.205 281.279 176.995C281.279 180.784 280.41 184.128 278.671 187.026C276.977 189.924 274.659 192.176 271.716 193.781C268.818 195.341 265.564 196.121 261.952 196.121ZM261.952 187.962C263.647 187.962 265.229 187.561 266.701 186.759C268.216 185.912 269.42 184.663 270.312 183.014C271.204 181.364 271.649 179.358 271.649 176.995C271.649 173.473 270.713 170.775 268.841 168.903C267.013 166.986 264.761 166.027 262.086 166.027C259.411 166.027 257.16 166.986 255.332 168.903C253.548 170.775 252.657 173.473 252.657 176.995C252.657 180.517 253.526 183.237 255.265 185.154C257.048 187.026 259.277 187.962 261.952 187.962ZM302.592 196.121C299.026 196.121 295.816 195.341 292.962 193.781C290.109 192.176 287.857 189.924 286.208 187.026C284.603 184.128 283.8 180.784 283.8 176.995C283.8 173.205 284.625 169.861 286.275 166.964C287.969 164.066 290.265 161.836 293.163 160.276C296.061 158.671 299.293 157.868 302.86 157.868C306.427 157.868 309.659 158.671 312.557 160.276C315.455 161.836 317.728 164.066 319.378 166.964C321.072 169.861 321.919 173.205 321.919 176.995C321.919 180.784 321.05 184.128 319.311 187.026C317.617 189.924 315.299 192.176 312.356 193.781C309.458 195.341 306.204 196.121 302.592 196.121ZM302.592 187.962C304.286 187.962 305.869 187.561 307.34 186.759C308.856 185.912 310.06 184.663 310.952 183.014C311.843 181.364 312.289 179.358 312.289 176.995C312.289 173.473 311.353 170.775 309.48 168.903C307.653 166.986 305.401 166.027 302.726 166.027C300.051 166.027 297.8 166.986 295.972 168.903C294.188 170.775 293.297 173.473 293.297 176.995C293.297 180.517 294.166 183.237 295.905 185.154C297.688 187.026 299.917 187.962 302.592 187.962ZM336.143 146.032V195.519H326.781V146.032H336.143Z" fill="#317CFF"/>
</svg>
