<svg width="161" height="24" viewBox="0 0 161 24" fill="none" xmlns="http://www.w3.org/2000/svg">
<g clip-path="url(#clip0_1339_2277)">
<path d="M19.9159 6.42828V17.5675L10.208 23.0949V11.9552L19.9159 6.42828Z" fill="#317CFF"/>
<path d="M0.5 6.42828V17.5675L10.208 23.0949V11.9552L0.5 6.42828Z" fill="#15A0FF"/>
<path d="M19.9159 6.42828L10.208 0.905273L0.5 6.42828L10.208 11.9552L19.9159 6.42828Z" fill="#01CCFF"/>
<path d="M16.9564 8.12801V15.87L10.2091 19.7116V11.9696L16.9564 8.12801Z" fill="#4EBEFF"/>
<path d="M3.46176 8.12801V15.87L10.2091 19.7116V11.9696L3.46176 8.12801Z" fill="#66CEFF"/>
<path d="M16.9564 8.12801L10.2091 4.2892L3.46176 8.12801L10.2091 11.9696L16.9564 8.12801Z" fill="#78E8FF"/>
<path d="M14.0141 9.81608V14.183L10.208 16.3498V11.9823L14.0141 9.81608Z" fill="#80D5FF"/>
<path d="M6.403 9.81608V14.183L10.208 16.3498V11.9823L6.403 9.81608Z" fill="#A1E4FF"/>
<path d="M14.0141 9.81608L10.2085 7.65037L6.403 9.81608L10.208 11.9823L14.0141 9.81608Z" fill="#B3F6FF"/>
<path d="M25.8331 12.7901C25.8331 11.5591 26.0994 10.4646 26.632 9.50603C27.1645 8.53524 27.904 7.78412 28.8509 7.25157C29.8095 6.70736 30.8924 6.43499 32.0995 6.43499C33.579 6.43499 34.8455 6.82552 35.8984 7.6066C36.9518 8.38768 37.6558 9.45278 38.0108 10.8019H34.6735C34.425 10.281 34.0699 9.88492 33.6084 9.61255C33.159 9.34072 32.6437 9.20426 32.064 9.20426C31.1292 9.20426 30.372 9.52989 29.7918 10.1806C29.2121 10.8319 28.9219 11.7011 28.9219 12.7901C28.9219 13.8791 29.2121 14.7483 29.7918 15.3996C30.3715 16.0503 31.1287 16.376 32.064 16.376C32.6442 16.376 33.159 16.24 33.6084 15.9677C34.0699 15.6958 34.425 15.2992 34.6735 14.7783H38.0108C37.6558 16.1274 36.9513 17.1925 35.8984 17.9736C34.8449 18.743 33.579 19.1275 32.0995 19.1275C30.8924 19.1275 29.8095 18.8612 28.8509 18.3286C27.9168 17.7971 27.1486 17.0166 26.632 16.0742C26.0994 15.1156 25.8331 14.0211 25.8331 12.7901ZM45.9586 9.02674C47.0947 9.02674 48.0056 9.40563 48.6924 10.1628C49.3786 10.9084 49.722 11.938 49.722 13.2516V19.0387H46.7042V13.6599C46.7042 12.9976 46.5322 12.4828 46.1894 12.1155C45.846 11.7489 45.385 11.5652 44.8047 11.5652C44.225 11.5652 43.7635 11.7483 43.4201 12.1155C43.0773 12.4828 42.9053 12.9976 42.9053 13.6599V19.0387H39.8703V5.90244H42.9059V10.4646C43.2137 10.0264 43.6337 9.678 44.1662 9.41728C44.6988 9.15655 45.2962 9.02674 45.9586 9.02674ZM51.2281 14.0682C51.2281 13.0508 51.4172 12.1571 51.7961 11.3877C52.1867 10.6188 52.7131 10.0269 53.376 9.61255C54.0384 9.19871 54.7784 8.99123 55.595 8.99123C56.2929 8.99123 56.9025 9.13325 57.4234 9.41728C57.956 9.7013 58.3643 10.0741 58.6483 10.5356V9.13325H61.6838V19.0387H58.6483V17.6363C58.3521 18.0979 57.9382 18.4707 57.4057 18.7547C56.8848 19.0387 56.2751 19.1807 55.5773 19.1807C54.7723 19.1807 54.0384 18.9738 53.376 18.5594C52.7131 18.1334 52.1867 17.5359 51.7961 16.7665C51.4172 15.9854 51.2281 15.0856 51.2281 14.0682ZM58.6483 14.086C58.6483 13.3288 58.4353 12.7313 58.0092 12.2931C57.5948 11.8548 57.0861 11.6362 56.4826 11.6362C55.879 11.6362 55.3642 11.8554 54.9382 12.2931C54.5238 12.7191 54.3169 13.311 54.3169 14.0682C54.3169 14.826 54.5238 15.4296 54.9382 15.8789C55.3642 16.3171 55.879 16.5357 56.4826 16.5357C57.0861 16.5357 57.5948 16.3166 58.0092 15.8789C58.4353 15.4407 58.6483 14.8438 58.6483 14.086ZM65.4062 8.10365C64.8736 8.10365 64.4359 7.94999 64.0925 7.6421C63.9323 7.49249 63.8052 7.31089 63.7196 7.10907C63.634 6.90724 63.5917 6.68969 63.5955 6.47049C63.5955 5.9973 63.7614 5.60676 64.0925 5.29888C64.4359 4.97935 64.8736 4.81958 65.4062 4.81958C65.9271 4.81958 66.3531 4.97935 66.6843 5.29888C67.0277 5.60676 67.1991 5.9973 67.1991 6.47049C67.1991 6.93203 67.0277 7.32257 66.6843 7.6421C66.3531 7.94999 65.9271 8.10365 65.4062 8.10365ZM66.9151 9.13325V19.0387H63.8795V9.13325H66.9151ZM75.1507 9.02674C76.3107 9.02674 77.2338 9.40563 77.92 10.1628C78.6184 10.9084 78.9674 11.938 78.9674 13.2516V19.0387H75.9496V13.6599C75.9496 12.9976 75.7782 12.4828 75.4348 12.1155C75.0914 11.7489 74.6298 11.5652 74.0501 11.5652C73.4704 11.5652 73.0089 11.7483 72.6655 12.1155C72.3221 12.4828 72.1507 12.9976 72.1507 13.6599V19.0387H69.1152V9.13325H72.1507V10.4469C72.4586 10.0086 72.8724 9.6658 73.3933 9.41728C73.9142 9.15655 74.5 9.02674 75.1507 9.02674ZM88.834 16.8375H84.1831L83.4375 19.0387H80.2599L84.7689 6.577H88.2837L92.7926 19.0387H89.5796L88.834 16.8375ZM88.0529 14.4943L86.5085 9.93208L84.9819 14.4943H88.0529ZM108.384 9.13325L105.704 19.0387H102.349L100.786 12.6126L99.1711 19.0387H95.8337L93.1355 9.13325H96.171L97.5734 16.2162L99.2421 9.13325H102.455L104.142 16.1807L105.526 9.13325H108.384ZM108.938 14.0682C108.938 13.0508 109.128 12.1571 109.506 11.3877C109.897 10.6188 110.423 10.0269 111.086 9.61255C111.749 9.19871 112.489 8.99123 113.305 8.99123C114.004 8.99123 114.613 9.13325 115.134 9.41728C115.666 9.7013 116.075 10.0741 116.359 10.5356V9.13325H119.394V19.0387H116.359V17.6363C116.063 18.0979 115.649 18.4707 115.116 18.7547C114.595 19.0387 113.986 19.1807 113.288 19.1807C112.483 19.1807 111.749 18.9738 111.086 18.5594C110.423 18.1334 109.897 17.5359 109.506 16.7665C109.128 15.9854 108.938 15.0856 108.938 14.0682ZM116.359 14.086C116.359 13.3288 116.146 12.7313 115.72 12.2931C115.305 11.8548 114.796 11.6362 114.193 11.6362C113.589 11.6362 113.075 11.8554 112.648 12.2931C112.234 12.7191 112.027 13.311 112.027 14.0682C112.027 14.826 112.234 15.4296 112.648 15.8789C113.075 16.3171 113.589 16.5357 114.193 16.5357C114.796 16.5357 115.305 16.3166 115.72 15.8789C116.146 15.4407 116.359 14.8438 116.359 14.086ZM124.626 10.7842C124.981 10.24 125.425 9.81336 125.957 9.50603C126.49 9.1865 127.081 9.02674 127.732 9.02674V12.2398H126.898C126.14 12.2398 125.572 12.4057 125.194 12.7368C124.815 13.0564 124.626 13.6244 124.626 14.441V19.0387H121.59V9.13325H124.626V10.7842ZM138.521 13.9262C138.521 14.2102 138.503 14.5065 138.467 14.8138H131.597C131.645 15.4296 131.84 15.9028 132.183 16.2339C132.538 16.5535 132.97 16.7132 133.479 16.7132C134.236 16.7132 134.763 16.3937 135.059 15.7546H138.29C138.126 16.4018 137.816 17.0029 137.384 17.5121C136.958 18.033 136.42 18.4413 135.769 18.7369C135.118 19.0332 134.39 19.1807 133.586 19.1807C132.615 19.1807 131.751 18.9738 130.994 18.5594C130.243 18.1516 129.626 17.5351 129.219 16.7842C128.793 16.0148 128.58 15.1156 128.58 14.086C128.58 13.0564 128.786 12.1571 129.201 11.3877C129.609 10.6369 130.225 10.0203 130.976 9.61255C131.733 9.19871 132.603 8.99123 133.586 8.99123C134.544 8.99123 135.396 9.19261 136.142 9.59479C136.877 9.98703 137.482 10.5855 137.881 11.3167C138.308 12.0623 138.521 12.9321 138.521 13.9262ZM135.414 13.1274C135.414 12.6065 135.236 12.1926 134.881 11.8848C134.526 11.5769 134.083 11.4232 133.55 11.4232C133.041 11.4232 132.609 11.5713 132.254 11.867C131.911 12.1632 131.698 12.5826 131.615 13.1274H135.414ZM141.542 19.1807C141.01 19.1807 140.572 19.0271 140.229 18.7192C140.068 18.5696 139.941 18.388 139.856 18.1861C139.77 17.9843 139.728 17.7668 139.732 17.5476C139.732 17.0744 139.897 16.6777 140.229 16.3582C140.572 16.0387 141.01 15.8789 141.542 15.8789C142.063 15.8789 142.489 16.0387 142.82 16.3582C143.164 16.6777 143.335 17.0738 143.335 17.5476C143.335 18.0091 143.164 18.3996 142.82 18.7192C142.489 19.0271 142.063 19.1807 141.542 19.1807ZM144.528 14.0682C144.528 13.0508 144.718 12.1571 145.096 11.3877C145.487 10.6188 146.013 10.0269 146.676 9.61255C147.339 9.19871 148.079 8.99123 148.895 8.99123C149.594 8.99123 150.203 9.13325 150.724 9.41728C151.256 9.7013 151.665 10.0741 151.949 10.5356V9.13325H154.984V19.0387H151.949V17.6363C151.653 18.0979 151.239 18.4707 150.706 18.7547C150.185 19.0387 149.576 19.1807 148.878 19.1807C148.073 19.1807 147.339 18.9738 146.676 18.5594C146.013 18.1334 145.487 17.5359 145.096 16.7665C144.718 15.9854 144.528 15.0856 144.528 14.0682ZM151.949 14.086C151.949 13.3288 151.736 12.7313 151.31 12.2931C150.895 11.8548 150.386 11.6362 149.783 11.6362C149.179 11.6362 148.665 11.8554 148.238 12.2931C147.824 12.7191 147.617 13.311 147.617 14.0682C147.617 14.826 147.824 15.4296 148.238 15.8789C148.665 16.3171 149.179 16.5357 149.783 16.5357C150.386 16.5357 150.895 16.3166 151.31 15.8789C151.736 15.4407 151.949 14.8438 151.949 14.086ZM158.707 8.10365C158.174 8.10365 157.737 7.94999 157.393 7.6421C157.233 7.49249 157.106 7.31089 157.02 7.10907C156.935 6.90724 156.893 6.68969 156.896 6.47049C156.896 5.9973 157.062 5.60676 157.393 5.29888C157.737 4.97935 158.174 4.81958 158.707 4.81958C159.228 4.81958 159.654 4.97935 159.985 5.29888C160.329 5.60676 160.5 5.9973 160.5 6.47049C160.5 6.93203 160.329 7.32257 159.985 7.6421C159.654 7.94999 159.228 8.10365 158.707 8.10365ZM160.216 9.13325V19.0387H157.18V9.13325H160.216Z" fill="#262626"/>
</g>
<defs>
<clipPath id="clip0_1339_2277">
<rect width="160" height="22.1897" fill="white" transform="translate(0.5 0.905273)"/>
</clipPath>
</defs>
</svg>
